<svg fill="none" height="16" viewBox="0 0 16 16" width="16" xmlns="http://www.w3.org/2000/svg" xmlns:xlink="http://www.w3.org/1999/xlink"><linearGradient id="a" gradientUnits="userSpaceOnUse" x1="8" x2="8" y1="2" y2="14"><stop offset="0" stop-color="#6c78f5"/><stop offset="1" stop-color="#936cf7"/></linearGradient><path d="m11.4286 7.57143v.85714c0 .17679-.1447.32143-.3215.32143h-2.3571v2.3571c0 .1768-.14464.3215-.32143.3215h-.85714c-.17679 0-.32143-.1447-.32143-.3215v-2.3571h-2.35714c-.17679 0-.32143-.14464-.32143-.32143v-.85714c0-.17679.14464-.32143.32143-.32143h2.35714v-2.35714c0-.17679.14464-.32143.32143-.32143h.85714c.17679 0 .32143.14464.32143.32143v2.35714h2.3571c.1768 0 .3215.14464.3215.32143zm2.5714-4.28572v9.42859c0 .7098-.5759 1.2857-1.2857 1.2857h-9.42859c-.70982 0-1.28571-.5759-1.28571-1.2857v-9.42859c0-.70982.57589-1.28571 1.28571-1.28571h9.42859c.7098 0 1.2857.57589 1.2857 1.28571zm-1.2857 9.26789v-9.10717c0-.08839-.0723-.16072-.1607-.16072h-9.10717c-.08839 0-.16072.07233-.16072.16072v9.10717c0 .0884.07233.1607.16072.1607h9.10717c.0884 0 .1607-.0723.1607-.1607z" fill="url(#a)"/></svg>