<svg width="16" height="16" viewBox="0 0 16 16" fill="none" xmlns="http://www.w3.org/2000/svg">
<path fill-rule="evenodd" clip-rule="evenodd" d="M11.3086 7.57143C10.9229 6.09714 9.59429 5 8 5C6.40571 5 5.07714 6.09714 4.69143 7.57143H2V9.28571H4.69143C5.07714 10.76 6.40571 11.8571 8 11.8571C9.59429 11.8571 10.9229 10.76 11.3086 9.28571H14V7.57143H11.3086V7.57143ZM8.00009 10.3144C6.95438 10.3144 6.11438 9.47436 6.11438 8.42864C6.11438 7.38293 6.95438 6.54293 8.00009 6.54293C9.04581 6.54293 9.88581 7.38293 9.88581 8.42864C9.88581 9.47436 9.04581 10.3144 8.00009 10.3144V10.3144Z" fill="#4F5258"/>
</svg>
