<svg fill="none" height="16" viewBox="0 0 16 16" width="16" xmlns="http://www.w3.org/2000/svg" xmlns:xlink="http://www.w3.org/1999/xlink"><linearGradient id="a" gradientUnits="userSpaceOnUse" x1="8" x2="8" y1="3" y2="12"><stop offset="0" stop-color="#677af5"/><stop offset="1" stop-color="#976af7"/></linearGradient><path d="m13.7188 10.875c.1546 0 .2812.1266.2812.2812v.5626c0 .1546-.1266.2812-.2812.2812h-11.43755c-.15469 0-.28125-.1266-.28125-.2812v-8.43755c0-.15469.12656-.28125.28125-.28125h.5625c.15469 0 .28125.12656.28125.28125v7.59375zm-8.3438-1.40625v-1.6875c0-.15469-.12656-.28125-.28125-.28125h-.5625c-.15469 0-.28125.12656-.28125.28125v1.6875c0 .15469.12656.28125.28125.28125h.5625c.15469 0 .28125-.12656.28125-.28125zm2.25 0v-4.6875c0-.15469-.12656-.28125-.28125-.28125h-.5625c-.15469 0-.28125.12656-.28125.28125v4.6875c0 .15469.12656.28125.28125.28125h.5625c.15469 0 .28125-.12656.28125-.28125zm2.25 0v-3.1875c0-.15469-.12656-.28125-.28125-.28125h-.5625c-.15469 0-.28125.12656-.28125.28125v3.1875c0 .15469.12656.28125.28125.28125h.5625c.15469 0 .28125-.12656.28125-.28125zm2.25 0v-5.4375c0-.15469-.1266-.28125-.2812-.28125h-.5626c-.1546 0-.2812.12656-.2812.28125v5.4375c0 .15469.1266.28125.2812.28125h.5626c.1546 0 .2812-.12656.2812-.28125z" fill="url(#a)"/></svg>