<svg width="512" height="384" viewBox="0 0 512 384" fill="none" xmlns="http://www.w3.org/2000/svg">
<path d="M464 0H48C21.49 0 0 21.49 0 48V336C0 362.51 21.49 384 48 384H464C490.51 384 512 362.51 512 336V48C512 21.49 490.51 0 464 0ZM464 48V88.805C441.578 107.064 405.832 135.456 329.413 195.295C312.572 208.542 279.212 240.367 256 239.996C232.792 240.371 199.421 208.537 182.587 195.295C106.18 135.465 70.425 107.067 48 88.805V48H464ZM48 336V150.398C70.914 168.649 103.409 194.26 152.938 233.044C174.795 250.249 213.072 288.23 256 287.999C298.717 288.23 336.509 250.8 359.053 233.052C408.581 194.269 441.085 168.651 464 150.399V336H48Z" fill="white"/>
</svg>
