<svg fill="none" height="16" viewBox="0 0 16 16" width="16" xmlns="http://www.w3.org/2000/svg"><path d="m13.6234 2.76628-1.3897-1.3897c-.2411-.24112-.5681-.37658-.9091-.37658h-4.61031c-.71009 0-1.28572.57562-1.28572 1.28571v1.28572h-2.14286c-.71009 0-1.28571.57562-1.28571 1.28571v8.57146c0 .7101.57562 1.2857 1.28571 1.2857h6c.71009 0 1.28569-.5756 1.28569-1.2857v-1.2857h2.1429c.7101 0 1.2857-.5757 1.2857-1.2858v-7.18169c0-.34099-.1355-.66802-.3766-.90913zm-4.4984 10.66232h-5.67857c-.04263 0-.0835-.017-.11364-.0471s-.04708-.071-.04708-.1136v-8.25004c0-.04263.01694-.0835.04708-.11364s.07101-.04708.11364-.04708h1.98214v5.99996c0 .7101.57563 1.2858 1.28572 1.2858h2.57142v1.125c0 .0426-.01693.0835-.04707.1136s-.07102.0471-.11364.0471zm3.4286-2.5715h-5.6786c-.04262 0-.0835-.0169-.11364-.047-.03014-.0302-.04707-.071-.04707-.1137v-8.24997c0-.04263.01693-.0835.04707-.11364s.07102-.04708.11364-.04708h2.83929v2.35715c0 .35504.28781.64285.64281.64285h2.3572v5.41069c0 .0427-.0169.0835-.0471.1137-.0301.0301-.071.047-.1136.047zm.1607-6.8571h-1.7143v-1.71429h.258c.0426 0 .0835.01693.1137.04707l1.2955 1.29557c.0149.01492.0268.03264.0349.05214.008.0195.0122.0404.0122.06151z" fill="#4f5258"/></svg>