<svg enable-background="new 0 0 55.343 55.343" fill="#fff" height="16" viewBox="0 0 55.343 55.343" width="16" xmlns="http://www.w3.org/2000/svg"><path d="m10.485 7.094h3.587c1.657 0 3-1.343 3-3s-1.343-3-3-3h-10.83c-.009 0-.018.002-.027.003-.188.001-.375.02-.56.056-.09.018-.174.052-.262.078-.1.029-.202.053-.299.093-.1.042-.191.098-.285.15-.077.042-.157.076-.231.126-.162.108-.312.23-.449.367-.002.003-.006.004-.008.007-.006.006-.009.013-.015.019-.034.035-.061.077-.094.114-.616.55-1.011 1.341-1.011 2.231v10.83c0 1.657 1.343 3 3 3s3-1.343 3-3v-4.072l10.124 10.122c.585.585 1.354.878 2.121.878s1.536-.293 2.122-.879c1.171-1.171 1.171-3.071 0-4.243z"/><path d="m16.125 34.124-10.125 10.125v-4.072c0-1.657-1.343-3-3-3s-3 1.343-3 3v10.83c0 .891.396 1.682 1.011 2.23.17.19.355.365.568.507.071.048.148.08.222.121.097.054.191.111.294.154.098.041.199.063.3.094.087.025.17.059.26.076.194.039.391.06.587.06h10.83c1.657 0 3-1.343 3-3s-1.343-3-3-3h-3.588l9.883-9.883c1.172-1.171 1.172-3.071 0-4.242-1.171-1.172-3.071-1.172-4.242 0z"/><path d="m52.342 37.177c-1.657 0-3 1.343-3 3v4.072l-10.125-10.125c-1.172-1.172-3.07-1.172-4.242 0-1.172 1.171-1.172 3.071 0 4.242l9.883 9.883h-3.588c-1.657 0-3 1.343-3 3s1.343 3 3 3h10.83c.196 0 .394-.021.587-.06.093-.018.178-.052.268-.079.098-.029.197-.051.292-.09.107-.045.206-.105.308-.162.069-.039.142-.068.208-.113.213-.143.399-.316.569-.508.615-.549 1.011-1.34 1.011-2.23v-10.83c-.001-1.657-1.344-3-3.001-3z"/><path d="m36.975 22.099c.768 0 1.535-.293 2.121-.879l10.125-10.125v4.072c0 1.657 1.343 3 3 3s3-1.343 3-3v-10.831c0-.89-.396-1.682-1.012-2.231-.169-.19-.355-.365-.567-.507-.069-.046-.144-.077-.215-.117-.1-.055-.195-.115-.302-.159-.097-.04-.197-.063-.297-.092-.087-.026-.171-.06-.263-.078-.193-.039-.39-.059-.587-.059h-10.83c-1.657 0-3 1.343-3 3s1.343 3 3 3h3.588l-9.883 9.883c-1.172 1.171-1.172 3.071 0 4.242.587.587 1.354.881 2.122.881z"/></svg>