<?xml version="1.0" encoding="iso-8859-1"?>
<!-- Generator: Adobe Illustrator 19.0.0, SVG Export Plug-In . SVG Version: 6.00 Build 0)  -->
<svg version="1.1" id="Capa_1" xmlns="http://www.w3.org/2000/svg" xmlns:xlink="http://www.w3.org/1999/xlink" x="0px" y="0px"
	 width="16" height="16" fill="white" viewBox="0 0 55.343 55.343" style="enable-background:new 0 0 55.343 55.343;" xml:space="preserve">
<g>
	<path d="M10.485,7.094h3.587c1.657,0,3-1.343,3-3s-1.343-3-3-3H3.242c-0.009,0-0.018,0.002-0.027,0.003
		c-0.188,0.001-0.375,0.02-0.56,0.056c-0.09,0.018-0.174,0.052-0.262,0.078c-0.1,0.029-0.202,0.053-0.299,0.093
		c-0.1,0.042-0.191,0.098-0.285,0.15C1.732,1.516,1.652,1.55,1.578,1.6C1.416,1.708,1.266,1.83,1.129,1.967
		C1.127,1.97,1.123,1.971,1.121,1.974C1.115,1.98,1.112,1.987,1.106,1.993C1.072,2.028,1.045,2.07,1.012,2.107
		c-0.616,0.55-1.011,1.341-1.011,2.231v10.83c0,1.657,1.343,3,3,3s3-1.343,3-3v-4.072l10.124,10.122
		c0.585,0.585,1.354,0.878,2.121,0.878s1.536-0.293,2.122-0.879c1.171-1.171,1.171-3.071,0-4.243L10.485,7.094z"/>
	<path d="M16.125,34.124L6,44.249v-4.072c0-1.657-1.343-3-3-3s-3,1.343-3,3v10.83c0,0.891,0.396,1.682,1.011,2.23
		c0.17,0.19,0.355,0.365,0.568,0.507c0.071,0.048,0.148,0.08,0.222,0.121c0.097,0.054,0.191,0.111,0.294,0.154
		c0.098,0.041,0.199,0.063,0.3,0.094c0.087,0.025,0.17,0.059,0.26,0.076c0.194,0.039,0.391,0.06,0.587,0.06h10.83
		c1.657,0,3-1.343,3-3s-1.343-3-3-3h-3.588l9.883-9.883c1.172-1.171,1.172-3.071,0-4.242C19.196,32.952,17.296,32.952,16.125,34.124
		z"/>
	<path d="M52.342,37.177c-1.657,0-3,1.343-3,3v4.072L39.217,34.124c-1.172-1.172-3.07-1.172-4.242,0
		c-1.172,1.171-1.172,3.071,0,4.242l9.883,9.883H41.27c-1.657,0-3,1.343-3,3s1.343,3,3,3H52.1c0.196,0,0.394-0.021,0.587-0.06
		c0.093-0.018,0.178-0.052,0.268-0.079c0.098-0.029,0.197-0.051,0.292-0.09c0.107-0.045,0.206-0.105,0.308-0.162
		c0.069-0.039,0.142-0.068,0.208-0.113c0.213-0.143,0.399-0.316,0.569-0.508c0.615-0.549,1.011-1.34,1.011-2.23v-10.83
		C55.342,38.52,53.999,37.177,52.342,37.177z"/>
	<path d="M36.975,22.099c0.768,0,1.535-0.293,2.121-0.879l10.125-10.125v4.072c0,1.657,1.343,3,3,3s3-1.343,3-3V4.336
		c0-0.89-0.396-1.682-1.012-2.231c-0.169-0.19-0.355-0.365-0.567-0.507c-0.069-0.046-0.144-0.077-0.215-0.117
		c-0.1-0.055-0.195-0.115-0.302-0.159c-0.097-0.04-0.197-0.063-0.297-0.092c-0.087-0.026-0.171-0.06-0.263-0.078
		c-0.193-0.039-0.39-0.059-0.587-0.059h-10.83c-1.657,0-3,1.343-3,3s1.343,3,3,3h3.588l-9.883,9.883
		c-1.172,1.171-1.172,3.071,0,4.242C35.44,21.805,36.207,22.099,36.975,22.099z"/>
</g>
<g>
</g>
<g>
</g>
<g>
</g>
<g>
</g>
<g>
</g>
<g>
</g>
<g>
</g>
<g>
</g>
<g>
</g>
<g>
</g>
<g>
</g>
<g>
</g>
<g>
</g>
<g>
</g>
<g>
</g>
</svg>
