<svg fill="none" height="16" viewBox="0 0 16 16" width="16" xmlns="http://www.w3.org/2000/svg" xmlns:xlink="http://www.w3.org/1999/xlink"><linearGradient id="a" gradientUnits="userSpaceOnUse" x1="8" x2="8" y1="2" y2="14"><stop offset="0" stop-color="#4484f7"/><stop offset="1" stop-color="#bc5cf7"/></linearGradient><path d="m6.01371 11.6624c0 .0496-.05565.0893-.12581.0893-.07984.0075-.13548-.0322-.13548-.0893 0-.0496.05564-.0893.12581-.0893.07258-.0075.13548.0322.13548.0893zm-.75242-.1117c-.01694.0496.03145.1067.10403.1216.06291.0248.13549 0 .15-.0496.01452-.0496-.03145-.1067-.10403-.129-.0629-.0174-.13306.0074-.15.057zm1.06936-.0422c-.07017.0174-.11855.0646-.1113.1216.00726.0497.07017.0819.14275.0645.07016-.0173.11854-.0645.11129-.1141-.00726-.0471-.07258-.0794-.14274-.072zm1.59193-9.5085c-3.35564 0-5.92258 2.61286-5.92258 6.0545 0 2.7518 1.68871 5.1066 4.10081 5.9354.30967.0571.41854-.139.41854-.3003 0-.1538-.00725-1.0024-.00725-1.5235 0 0-1.69355.3722-2.0492-.7394 0 0-.2758-.7221-.67258-.9082 0 0-.55403-.3896.03871-.3821 0 0 .60242.0496.93387.6401.52984.9578 1.41774.6824 1.76371.5186.05565-.397.21291-.6724.3871-.8362-1.35242-.1538-2.71694-.3548-2.71694-2.74187 0-.68237.18388-1.02479.57097-1.46151-.0629-.16129-.26855-.82629.06291-1.68484.50564-.16129 1.66935.66997 1.66935.66997.48387-.13896 1.00403-.21092 1.51935-.21092.51533 0 1.03549.07196 1.51936.21092 0 0 1.16369-.83374 1.66939-.66997.3314.86103.1258 1.52355.0629 1.68484.3871.4392.6242.78162.6242 1.46151 0 2.39447-1.425 2.58557-2.77746 2.74187.22258.1961.41129.5683.41129 1.1514 0 .8362-.00726 1.8709-.00726 2.0744 0 .1613.11129.3573.41855.3002 2.41938-.8238 4.05968-3.1786 4.05968-5.9304 0-3.44164-2.7218-6.0545-6.07742-6.0545zm-3.57097 8.5582c-.03145.0248-.02419.0819.01694.129.03871.0397.09435.0571.1258.0248.03146-.0248.0242-.0819-.01693-.129-.03871-.0397-.09436-.0571-.12581-.0248zm-.26129-.201c-.01693.0322.00726.072.05565.0968.03871.0248.08709.0173.10403-.0174.01694-.0323-.00726-.072-.05565-.0968-.04838-.0149-.08709-.0074-.10403.0174zm.78387.8834c-.03871.0322-.02419.1067.03146.1538.05564.0571.1258.0645.15725.0248.03145-.0322.01694-.1067-.03145-.1538-.05322-.0571-.1258-.0645-.15726-.0248zm-.2758-.3648c-.03871.0248-.03871.0893 0 .1464s.10403.0819.13548.0571c.03871-.0323.03871-.0968 0-.1539-.03387-.057-.09677-.0819-.13548-.0496z" fill="url(#a)"/></svg>