<svg fill="none" height="16" viewBox="0 0 16 16" width="16" xmlns="http://www.w3.org/2000/svg"><path d="m10.6181 6.45162h3.1798c.1316.49401.2021 1.01294.2021 1.54839 0 .53546-.0705 1.05438-.2021 1.54839h-3.1798c.1247-1.04151.1195-2.0987 0-3.09678zm-4.33066 3.87098c.25834 1.2987.80258 2.7221 1.69658 3.6772.00535.0001.01065.0002.01599.0002.00535 0 .01065-.0002.01599-.0002.89546-.9567 1.43873-2.381 1.69658-3.6772zm4.21286-4.64517h3.0335c-.7724-1.83814-2.4339-3.21037-4.44629-3.57884.73157 1.04323 1.18119 2.33062 1.41279 3.57884zm-.66172.77419h-3.67714c-.12917 1.01405-.12931 2.08155 0 3.09678h3.67716c.12917-1.01407.12932-2.08154-.00002-3.09678zm-4.33883 3.87098h-3.03352c.77241 1.8381 2.43388 3.2104 4.44626 3.5788-.73176-1.0436-1.18121-2.331-1.41274-3.5788zm5.00055 0c-.2317 1.2485-.68139 2.5358-1.41279 3.5788 2.01239-.3684 3.67389-1.7407 4.44629-3.5788zm-.78772-4.64517c-.25834-1.29872-.8026-2.72212-1.69658-3.67724-.00534 0-.01064-.00019-.01599-.00019-.00534 0-.01064.00019-.01599.00019-.89545.95669-1.43872 2.38099-1.69658 3.67724zm-7.51044.77419c-.13162.49401-.20214 1.01294-.20214 1.54839 0 .53546.07052 1.05438.20214 1.54839h3.17976c-.11949-.99808-.12469-2.05527 0-3.09678zm3.29761-.77419c.23165-1.24844.68132-2.53573 1.41276-3.57884-2.01237.36847-3.67385 1.7407-4.44628 3.57884z" fill="#a641f4"/></svg>