<svg width="16" height="16" viewBox="0 0 16 16" fill="none" xmlns="http://www.w3.org/2000/svg">
<path d="M7.96371 11.8884L8.86868 13.1813C8.57992 13.2085 8.29005 13.2222 8.00001 13.2222C4.67196 13.2222 1.75087 11.4459 0.184624 8.78802C0.0637489 8.58291 0 8.34917 0 8.11109C0 7.87301 0.0637489 7.63927 0.184624 7.43416C0.85193 6.30177 1.76554 5.3293 2.85196 4.58591L4.43743 6.85088C4.29823 7.24499 4.22223 7.66908 4.22223 8.1111C4.22223 10.1871 5.89265 11.8689 7.96371 11.8884V11.8884ZM15.8154 8.78802C14.9358 10.2807 13.628 11.4952 12.0605 12.2734L12.0608 12.2739L13.2128 13.9183C13.4239 14.22 13.3506 14.6355 13.0489 14.8466L12.6847 15.1016C12.3831 15.3127 11.9675 15.2394 11.7564 14.9377L2.78723 2.30388C2.57612 2.00222 2.64946 1.58666 2.95112 1.37555L3.31529 1.12055C3.61696 0.909439 4.03251 0.982773 4.24362 1.28444L5.66134 3.30158C6.40779 3.10488 7.19182 2.99999 8.00001 2.99999C11.3281 2.99999 14.2491 4.77635 15.8154 7.43419C15.9363 7.6393 16 7.87303 16 8.1111C16 8.34918 15.9363 8.58291 15.8154 8.78802ZM11.7778 8.1111C11.7778 6.02294 10.0878 4.33333 8.00001 4.33333C7.50171 4.33333 7.02623 4.4298 6.59087 4.60477L7.12696 5.35638C7.84554 5.12941 8.65596 5.18519 9.36029 5.56222H9.35946C8.70251 5.56222 8.17001 6.09472 8.17001 6.75166C8.17001 7.40794 8.70187 7.9411 9.35946 7.9411C10.0164 7.9411 10.5489 7.4086 10.5489 6.75166V6.75083C11.0617 7.70888 11.002 8.9151 10.3197 9.83277V9.83305L10.8562 10.5847C11.4305 9.92221 11.7778 9.0576 11.7778 8.1111ZM7.27818 10.9091L5.12457 7.83249C4.98529 9.28769 5.93885 10.5645 7.27818 10.9091Z" fill="#FFF"/>
</svg>
