<svg fill="none" height="16" viewBox="0 0 16 16" width="16" xmlns="http://www.w3.org/2000/svg" xmlns:xlink="http://www.w3.org/1999/xlink"><linearGradient id="a" gradientUnits="userSpaceOnUse" x1="7.5" x2="7.5" y1="2" y2="14"><stop offset="0" stop-color="#6d78f5"/><stop offset="1" stop-color="#936cf7"/></linearGradient><path d="m3.95433 11.375c-.3783 0-.56728-.4779-.30094-.7545.56934-.5912 1.04032-1.15634 1.14312-2.84716l-1.05573-.96736c-.00437.07649-.0066.1531-.00668.22973 0 1.92031-.39611 2.32716-.77961 2.72058-1.08548 1.11341-.29054 2.74371 1.00027 2.74371h2.10079c0 .8284.64671 1.5 1.44445 1.5s1.44444-.6716 1.44444-1.5h1.0106l-1.22778-1.125zm3.54567 1.6875c-.29869 0-.54167-.2523-.54167-.5625h1.08333c0 .3102-.24298.5625-.54166.5625zm6.4067.013-1.5331-1.3962c.2957-.5653.26-1.32-.328-1.92289-.3835-.3934-.7797-.80023-.7797-2.7207 0-1.94592-1.3758-3.56423-3.17027-3.86161.08264-.12476.1268-.27267.12659-.4241 0-.41421-.32335-.75-.72222-.75s-.72223.33579-.72223.75c-.0002.15143.04395.29934.1266.4241-.93598.15511-1.75796.66963-2.33028 1.40252l-2.75124-2.50544c-.11415-.10397-.28837-.09272-.38909.0251l-.36479.42668c-.100732.11782-.089854.29763.02433.40158l12.0839 11.00426c.1141.104.2883.0927.3891-.0251l.3648-.4267c.1007-.1178.0898-.2976-.0244-.4015zm-6.4067-8.8255c1.47916 0 2.6825 1.24966 2.6825 2.78571 0 2.28867.5241 2.9197 1.1639 3.58479.0656.0682.1032.1483.1176.2305l-6.07465-5.53197c.49147-.65027 1.2547-1.06903 2.11065-1.06903z" fill="url(#a)"/></svg>