<svg fill="none" height="16" viewBox="0 0 16 16" width="16" xmlns="http://www.w3.org/2000/svg" xmlns:xlink="http://www.w3.org/1999/xlink"><linearGradient id="a" gradientUnits="userSpaceOnUse" x1="8" x2="8" y1="2" y2="14"><stop offset="0" stop-color="#6f78f5"/><stop offset="1" stop-color="#926df7"/></linearGradient><path d="m12.4956 9.75638c-.3792-.3934-.7711-.80022-.7711-2.72069 0-1.94592-1.3607-3.56424-3.13543-3.86161.08174-.12475.12542-.27266.12522-.42408 0-.41421-.3198-.75-.71428-.75-.39449 0-.71429.33579-.71429.75-.0002.15143.04346.29934.1252.4241-1.77473.29738-3.1354 1.91569-3.1354 3.86161 0 1.92031-.39177 2.32716-.77105 2.72058-1.07357 1.11341-.28737 2.74371.98926 2.74371h2.0777c0 .8284.6396 1.5 1.42858 1.5.78897 0 1.42857-.6716 1.42857-1.5h2.07772c1.2765 0 2.0628-1.6309.9893-2.74362zm-4.49559 3.30612c-.29541 0-.53572-.2523-.53572-.5625h1.07143c0 .3102-.24031.5625-.53571.5625zm3.50649-1.6875h-7.01319c-.37415 0-.56105-.4779-.29764-.7545.63806-.66994 1.15128-1.30601 1.15128-3.58479 0-1.53605 1.19015-2.78571 2.65306-2.78571 1.4629 0 2.65309 1.24966 2.65309 2.78571 0 2.28867.5183 2.9197 1.151 3.58479.2646.2778.075.7545-.2976.7545z" fill="url(#a)"/></svg>