<svg fill="none" height="11" viewBox="0 0 12 11" width="12" xmlns="http://www.w3.org/2000/svg" xmlns:xlink="http://www.w3.org/1999/xlink"><mask id="a" height="11" maskUnits="userSpaceOnUse" width="12" x="0" y="0"><path d="m0 0h11.875v10.7517h-11.875z" fill="#fff"/></mask><mask id="b" height="4" maskUnits="userSpaceOnUse" width="5" x="5" y="8"><path d="m0 0h2.56538v2.56538h-2.56538z" fill="#fff" transform="matrix(-.707107 .707107 .707107 .707107 7.75153 8.18414)"/></mask><mask id="c" height="4" maskUnits="userSpaceOnUse" width="5" x="0" y="6"><path d="m4.12354 8.18414h2.56538v2.56539h-2.56538z" fill="#fff" transform="matrix(-.70710678 .70710678 -.70710678 -.70710678 12.826384 11.055418)"/></mask><mask id="d" height="4" maskUnits="userSpaceOnUse" width="4" x="2" y="8"><path d="m0 0h2.56538v2.56538h-2.56538z" fill="#fff" transform="matrix(-.707107 .707107 .707107 .707107 4.12354 8.18414)"/></mask><mask id="e" height="5" maskUnits="userSpaceOnUse" width="4" x="4" y="2"><path d="m0 0h2.56538v2.56538h-2.56538z" fill="#fff" transform="matrix(.707107 -.707107 -.707107 -.707107 5.9375 6.37012)"/></mask><mask id="f" height="4" maskUnits="userSpaceOnUse" width="5" x="7" y="6"><path d="m7.75153 8.18414h2.56538v2.56539h-2.56538z" fill="#fff" transform="matrix(.70710678 -.70710678 .70710678 .70710678 -3.51669 7.878239)"/></mask><g mask="url(#a)"><g mask="url(#b)"><path clip-rule="evenodd" d="m9.56553 9.99815c-1.00185 1.00185-2.62616 1.00185-3.628 0-1.00185-1.00184-1.00185-2.62615 0-3.628 1.00184-1.00184 2.62615-1.00184 3.628 0 1.00187 1.00185 1.00187 2.62616 0 3.628z" fill="#000" fill-rule="evenodd"/></g><g mask="url(#c)"><path clip-rule="evenodd" d="m2.30952 6.37014c-1.00184 1.00185-1.00184 2.62616 0 3.628 1.00185 1.00186 2.62616 1.00186 3.62801 0 1.00184-1.00184 1.00184-2.62615 0-3.628-1.00185-1.00184-2.62616-1.00184-3.62801 0z" fill="#000" fill-rule="evenodd"/></g><g mask="url(#d)"><path clip-rule="evenodd" d="m5.93754 9.99815c-1.00185 1.00185-2.62616 1.00185-3.62801 0-1.00184-1.00184-1.00184-2.62615 0-3.628 1.00185-1.00184 2.62616-1.00184 3.62801 0 1.00184 1.00185 1.00184 2.62616 0 3.628z" fill="#000" fill-rule="evenodd"/></g><g mask="url(#e)"><path clip-rule="evenodd" d="m4.1235 4.55611c1.00184-1.00185 2.62616-1.00185 3.628 0 1.00184 1.00184 1.00184 2.62615 0 3.628-1.00184 1.00184-2.62616 1.00184-3.628 0-1.00184-1.00185-1.00184-2.62616 0-3.628z" fill="#000" fill-rule="evenodd"/></g><path d="m7.75153 8.18414h2.56538v2.56539h-2.56538z" fill="#000" transform="matrix(-.70710678 .70710678 -.70710678 -.70710678 19.01975 8.490041)"/><path d="m9.56549 6.37012h2.56538v2.56538h-2.56538z" fill="#000" transform="matrix(-.70710678 .70710678 -.70710678 -.70710678 20.833668 4.110652)"/><path d="m5.9375 6.37012h2.56538v2.56538h-2.56538z" fill="#000" transform="matrix(-.70710678 .70710678 -.70710678 -.70710678 14.640302 6.676029)"/><g mask="url(#f)"><path clip-rule="evenodd" d="m9.56554 9.99814c1.00186-1.00184 1.00186-2.62615 0-3.628-1.00185-1.00184-2.62616-1.00184-3.628 0-1.00185 1.00185-1.00185 2.62616 0 3.628 1.00184 1.00186 2.62615 1.00186 3.628 0z" fill="#000" fill-rule="evenodd"/></g><g fill="#000"><path clip-rule="evenodd" d="m4.14987 2.89998c.81098 0 1.46842-.64919 1.46842-1.44999 0-.800808-.65744-1.44999-1.46842-1.44999s-1.46841.649182-1.46841 1.44999c0 .8008.65743 1.44999 1.46841 1.44999z" fill-rule="evenodd"/><path clip-rule="evenodd" d="m1.46841 5.2956c.81099 0 1.46842-.64918 1.46842-1.44998 0-.80081-.65743-1.44999-1.46842-1.44999-.810979 0-1.46841.64918-1.46841 1.44999 0 .8008.657431 1.44998 1.46841 1.44998z" fill-rule="evenodd"/><path clip-rule="evenodd" d="m7.72513 2.89998c.81098 0 1.46841-.64919 1.46841-1.44999 0-.800808-.65743-1.44999-1.46841-1.44999s-1.46842.649182-1.46842 1.44999c0 .8008.65744 1.44999 1.46842 1.44999z" fill-rule="evenodd"/><path clip-rule="evenodd" d="m10.4066 5.2956c.811 0 1.4684-.64918 1.4684-1.44998 0-.80081-.6574-1.44999-1.4684-1.44999s-1.46843.64918-1.46843 1.44999c0 .8008.65743 1.44998 1.46843 1.44998z" fill-rule="evenodd"/></g></g></svg>