<svg fill="none" height="16" viewBox="0 0 16 16" width="16" xmlns="http://www.w3.org/2000/svg" xmlns:xlink="http://www.w3.org/1999/xlink"><linearGradient id="a" gradientUnits="userSpaceOnUse" x1="7.62803" x2="7.62803" y1="2" y2="14"><stop offset="0" stop-color="#4285f7"/><stop offset="1" stop-color="#ba5df7"/></linearGradient><g fill="url(#a)"><path clip-rule="evenodd" d="m11.6786 13.1612c-1.1184 1.1184-2.93167 1.1184-4.05005 0s-1.1184-2.9316-.00002-4.05002c1.11838-1.11838 2.93167-1.11838 4.04997 0 1.1184 1.11842 1.1184 2.93162.0001 4.05002z" fill-rule="evenodd"/><path clip-rule="evenodd" d="m3.57869 9.1112c-1.11838 1.1184-1.11838 2.9316 0 4.05s2.93148 1.1184 4.04986 0 1.11836-2.9316-.00002-4.05002c-1.11838-1.11838-2.93146-1.11836-4.04984.00002z" fill-rule="evenodd"/><path clip-rule="evenodd" d="m7.62855 13.1612c-1.11838 1.1184-2.93148 1.1184-4.04986 0s-1.11838-2.9316 0-4.05c1.11838-1.11838 2.93146-1.1184 4.04984-.00002 1.11838 1.11842 1.1184 2.93162.00002 4.05002z" fill-rule="evenodd"/><path clip-rule="evenodd" d="m5.60356 7.0862c1.11838-1.11838 2.93163-1.11838 4.05001 0 1.11843 1.11838 1.11833 2.9316-.00001 4.05-1.11838 1.1184-2.93148 1.1184-4.04986 0s-1.11853-2.93162-.00014-4.05z" fill-rule="evenodd"/><path d="m9.65356 11.1362-2.02501 2.025-2.02485-2.025 2.02483-2.02502z"/><path d="m11.6785 9.11118-2.02494 2.02502-2.02503-2.02502 2.02504-2.02498z"/><path d="m7.62853 9.11118-2.02483 2.02502-2.02501-2.025 2.02487-2.025z"/><g clip-rule="evenodd" fill-rule="evenodd"><path d="m11.6786 13.1612c1.1183-1.1184 1.1183-2.9316-.0001-4.05002-1.1183-1.11838-2.93159-1.11838-4.04997 0-1.11838 1.11842-1.11836 2.93162.00002 4.05002s2.93165 1.1184 4.05005 0z"/><path d="m5.63255 5.23731c.90531 0 1.63922-.7247 1.63922-1.61866 0-.89395-.73391-1.61865-1.63922-1.61865-.90532 0-1.63923.7247-1.63923 1.61865 0 .89396.73391 1.61866 1.63923 1.61866z"/><path d="m2.63922 7.9116c.90532 0 1.63922-.7247 1.63922-1.61865 0-.89396-.7339-1.61865-1.63922-1.61865s-1.63922.72469-1.63922 1.61865c0 .89395.7339 1.61865 1.63922 1.61865z"/><path d="m9.62351 5.23731c.90529 0 1.63919-.7247 1.63919-1.61866 0-.89395-.7339-1.61865-1.63919-1.61865-.90531 0-1.63922.7247-1.63922 1.61865 0 .89396.73391 1.61866 1.63922 1.61866z"/><path d="m12.6168 7.9116c.9054 0 1.6393-.7247 1.6393-1.61865 0-.89396-.7339-1.61865-1.6393-1.61865-.9053 0-1.6392.72469-1.6392 1.61865 0 .89395.7339 1.61865 1.6392 1.61865z"/></g></g></svg>