<svg fill="none" height="16" viewBox="0 0 16 16" width="16" xmlns="http://www.w3.org/2000/svg" xmlns:xlink="http://www.w3.org/1999/xlink"><linearGradient id="a" gradientUnits="userSpaceOnUse" x1="8" x2="8" y1="2" y2="14"><stop offset="0" stop-color="#6e78f5"/><stop offset="1" stop-color="#916ef7"/></linearGradient><path d="m10.7755 5.03097c-.7564-.7082-1.73789-1.09641-2.77918-1.09549-1.87398.00165-3.4918 1.28657-3.93849 3.06896-.03252.12975-.14811.22137-.28188.22137h-1.38636c-.1814 0-.31921-.16469-.28565-.34297.52347-2.77984 2.96412-4.88284 5.89606-4.88284 1.60761 0 3.0675.63232 4.1447 1.66173l.8641-.86407c.3658-.36578.9912-.10672.9912.41059v3.24336c0 .32069-.26.58065-.5806.58065h-3.2434c-.51731 0-.77638-.62543-.4106-.99124zm-8.19485 3.93677h3.24336c.5173 0 .77637.62543.41059.99124l-1.01008 1.01012c.75633.7082 1.73794 1.0964 2.77925 1.0954 1.87302-.0017 3.49153-1.2857 3.93843-3.06889.0325-.12975.1481-.22137.2818-.22137h1.3864c.1814 0 .3192.16469.2857.34297-.5235 2.77979-2.9642 4.88279-5.8961 4.88279-1.60761 0-3.06752-.6323-4.14472-1.6617l-.86407.864c-.36578.3658-.99121.1068-.99121-.4106v-3.24331c0-.32069.25996-.58065.58065-.58065z" fill="url(#a)"/></svg>