<svg fill="none" height="16" viewBox="0 0 16 16" width="16" xmlns="http://www.w3.org/2000/svg"><path d="m13.8401 2.44775c-.0305-.143-.143-.25552-.286-.286-.7548-.16175-1.3456-.16175-1.934-.16175-2.41921 0-3.87028 1.29401-4.95332 3.00061h-2.44268c-.42665 0-.81579.24145-1.00567.62122l-1.15805 2.31609c-.18754.37508.08439.81345.50401.81345h2.22936c-.13831.30006-.27896.59778-.42196.88377-.07267.14535-.04454.31882.07032.43366l1.49093 1.491c.11487.1148.28834.143.43368.0703.286-.143.58372-.2813.88378-.4196v2.2293c0 .4173.44071.6892.81344.504l2.31376-1.158c.3821-.1899.6212-.5814.6212-1.0057v-2.44736c1.7019-1.08538 3.0006-2.54114 3.0006-4.94866.0024-.59075.0024-1.18149-.1594-1.93633zm-2.4638 3.30301c-.6212 0-1.1252-.50401-1.1252-1.12523s.504-1.12523 1.1252-1.12523c.6213 0 1.1253.50401 1.1253 1.12523s-.504 1.12523-1.1253 1.12523z" fill="#2196f3"/></svg>