<svg enable-background="new 0 0 426.667 426.667" height="16" viewBox="0 0 426.667 426.667" width="16" xmlns="http://www.w3.org/2000/svg" xmlns:xlink="http://www.w3.org/1999/xlink"><linearGradient id="a" gradientUnits="userSpaceOnUse" x1="8" x2="8" y1="2" y2="14"><stop offset="0" stop-color="#6d78f5"/><stop offset="1" stop-color="#926df7"/></linearGradient><path d="m416.8 269.44-45.013-35.307c.853-6.827 1.493-13.76 1.493-20.8s-.64-13.973-1.493-20.8l45.12-35.307c4.053-3.2 5.227-8.96 2.56-13.653l-42.667-73.92c-2.667-4.587-8.213-6.507-13.013-4.587l-53.12 21.44c-10.987-8.427-23.04-15.573-36.053-21.013l-8-56.533c-.961-5.013-5.334-8.96-10.667-8.96h-85.333c-5.333 0-9.707 3.947-10.56 8.96l-8 56.533c-13.013 5.44-25.067 12.48-36.053 21.013l-53.12-21.44c-4.8-1.813-10.347 0-13.013 4.587l-42.668 73.92c-2.667 4.587-1.493 10.347 2.56 13.653l45.013 35.307c-.853 6.827-1.493 13.76-1.493 20.8s.64 13.973 1.493 20.8l-45.013 35.307c-4.053 3.2-5.227 8.96-2.56 13.653l42.667 73.92c2.667 4.587 8.213 6.507 13.013 4.587l53.12-21.44c10.987 8.427 23.04 15.573 36.053 21.013l8 56.533c.853 5.013 5.227 8.96 10.56 8.96h85.333c5.333 0 9.707-3.947 10.56-8.96l8-56.533c13.013-5.44 25.067-12.48 36.053-21.013l53.12 21.44c4.8 1.813 10.347 0 13.013-4.587l42.667-73.92c2.668-4.586 1.494-10.346-2.559-13.653zm-203.52 18.56c-41.28 0-74.667-33.387-74.667-74.667s33.387-74.666 74.667-74.666 74.667 33.387 74.667 74.667-33.387 74.666-74.667 74.666z" fill="url(#a)"/></svg>