<svg fill="none" height="16" viewBox="0 0 16 16" width="16" xmlns="http://www.w3.org/2000/svg"><g fill="#42a5f5"><path d="m2.75 8 9.75-5.25v1.84001l-6.5 3.40999 6.5 3.41v1.84z"/><path d="m14 4.25c0 1.24264-1.0074 2.25-2.25 2.25s-2.25-1.00736-2.25-2.25 1.0074-2.25 2.25-2.25 2.25 1.00736 2.25 2.25z"/><path d="m6.5 8c0 1.24264-1.00736 2.25-2.25 2.25s-2.25-1.00736-2.25-2.25 1.00736-2.25 2.25-2.25 2.25 1.00736 2.25 2.25z"/><path d="m14 11.75c0 1.2426-1.0074 2.25-2.25 2.25s-2.25-1.0074-2.25-2.25 1.0074-2.25 2.25-2.25 2.25 1.0074 2.25 2.25z"/></g></svg>