<svg width="592" height="512" viewBox="0 0 592 512" fill="none" xmlns="http://www.w3.org/2000/svg">
<path d="M12 384H68C74.6 384 80 389.4 80 396V500C80 506.6 74.6 512 68 512H12C5.4 512 0 506.6 0 500V396C0 389.4 5.4 384 12 384ZM128 348V500C128 506.6 133.4 512 140 512H196C202.6 512 208 506.6 208 500V348C208 341.4 202.6 336 196 336H140C133.4 336 128 341.4 128 348ZM256 268V500C256 506.6 261.4 512 268 512H324C330.6 512 336 506.6 336 500V268C336 261.4 330.6 256 324 256H268C261.4 256 256 261.4 256 268ZM384 156V500C384 506.6 389.4 512 396 512H452C458.6 512 464 506.6 464 500V156C464 149.4 458.6 144 452 144H396C389.4 144 384 149.4 384 156ZM512 12V500C512 506.6 517.4 512 524 512H580C586.6 512 592 506.6 592 500V12C592 5.4 586.6 0 580 0H524C517.4 0 512 5.4 512 12Z" fill="white"/>
</svg>
