<svg enable-background="new 0 0 1000 1000" height="18" viewBox="0 0 1000 1000" width="18" xmlns="http://www.w3.org/2000/svg"><path d="m438.8 770.4-196.5-227.1 56-56 140.4 109.8 262.9-232.3 56 56zm367.2-637.9c.1.1.2.2.2.2v734.6c-.1.1-.2.2-.2.2h-612c-.1-.1-.2-.2-.2-.2v-734.6c.1-.1.2-.2.2-.2h-122.7v735c0 67.4 55.1 122.5 122.5 122.5h612.5c67.4 0 122.5-55.1 122.5-122.5v-735zm-183.5 0v-61.2c0-33.8-27.4-61.3-61.3-61.3h-122.4c-33.8 0-61.3 27.4-61.3 61.3v61.3h-122.5v122.4h490v-122.5zm-61.2 0h-122.5v-61.2h122.5z" fill="#42a5f5"/></svg>