<svg width="496" height="496" viewBox="0 0 496 496" fill="none" xmlns="http://www.w3.org/2000/svg">
<path d="M248 64C349.689 64 432 146.295 432 248C432 349.689 349.705 432 248 432C146.311 432 64 349.705 64 248C64 146.311 146.295 64 248 64ZM248 0C111.033 0 0 111.033 0 248C0 384.967 111.033 496 248 496C384.967 496 496 384.967 496 248C496 111.033 384.967 0 248 0ZM248 184C283.29 184 312 212.71 312 248C312 283.29 283.29 312 248 312C212.71 312 184 283.29 184 248C184 212.71 212.71 184 248 184ZM248 120C177.308 120 120 177.308 120 248C120 318.692 177.308 376 248 376C318.692 376 376 318.692 376 248C376 177.308 318.692 120 248 120Z" fill="white"/>
</svg>
