<svg width="28" height="28" viewBox="0 0 28 28" fill="none" xmlns="http://www.w3.org/2000/svg">
<path fill-rule="evenodd" clip-rule="evenodd" d="M17.8163 14.0088C21.0293 14.9342 23.1168 12.9862 23.1168 12.9862L24.098 14.0662L23.9814 14.6096C23.9814 14.6096 21.2618 16.2571 17.8785 15.4011L17.8163 14.0088Z" fill="#89A6BE"/>
<path fill-rule="evenodd" clip-rule="evenodd" d="M22.3481 13.6469C22.3481 13.6469 21.6787 12.0963 22.2781 11.8997C22.2781 11.8997 22.8381 11.6901 23.1181 12.5287C23.1181 12.5287 24.1563 11.9069 24.5067 12.4721C24.5067 12.4721 25.302 13.7911 24.5202 14.3294C24.5202 14.3294 23.3587 15.4885 20.6339 15.7142L22.3481 13.6469Z" fill="#89A6BE"/>
<path fill-rule="evenodd" clip-rule="evenodd" d="M23.1181 12.5287C23.1181 12.5287 22.5514 12.8534 22.7447 13.3988C22.7447 13.3988 23.0641 14.7245 23.9297 14.4979C23.9297 14.4979 24.7365 14.3469 24.8374 13.8099C24.8374 13.8099 23.728 14.5567 23.2994 13.7763C23.2994 13.7763 22.8192 12.934 23.1181 12.5287" fill="#6F8EA7"/>
<path fill-rule="evenodd" clip-rule="evenodd" d="M24.8492 13.8036C24.8492 13.8036 24.2683 14.2838 24.1506 14.3632C23.5031 14.8 22.3266 15.2037 20.9058 15.3737C19.9523 15.4878 18.7533 15.4382 17.8116 15.1017L17.8363 15.4988C17.8363 15.4988 18.2402 15.6178 18.8444 15.6949C19.3493 15.7593 19.9941 15.7895 20.6586 15.7438C20.6586 15.7438 23.201 15.6187 24.5705 14.3195C24.5705 14.3195 24.8389 14.0953 24.8492 13.8036" fill="#6F8EA7"/>
<path fill-rule="evenodd" clip-rule="evenodd" d="M13.0821 18.3408C9.79844 17.7613 8.28058 16.4258 6.84079 10.3273C6.53026 9.01197 6.20852 7.42487 6.12729 6.56042C5.81739 3.26288 3.95846 2.03868 3.93113 1.99469C3.91129 2.03491 1.71783 4.09683 1.80237 8.23322C1.89649 12.8371 3.33432 14.8791 4.15134 15.873C4.17016 15.8959 4.1893 15.9186 4.20848 15.9414C5.60096 17.6874 8.02059 18.894 9.33867 19.3739C10.244 19.7035 11.8999 20.067 13.0486 20.1866" fill="#89A6BE"/>
<path fill-rule="evenodd" clip-rule="evenodd" d="M2.99293 7.34491C3.37486 7.24172 3.41607 6.23859 3.49879 5.75502C3.57531 5.30754 3.8079 5.13777 3.96754 5.68077C4.05258 5.97007 4.11376 7.10707 4.41678 7.25137C4.86745 7.46596 4.84373 5.41972 4.83217 5.66318C5.34985 5.24274 4.97905 5.42673 5.00678 4.8827C5.01884 5.53961 5.70464 7.21694 6.28239 7.66519C6.20805 7.23864 6.1519 6.85697 6.124 6.56043C5.81413 3.26285 4.3678 1.90805 4.05693 1.91816C3.74607 1.92827 2.11671 3.54666 1.83148 7.15589C2.17356 6.74955 2.19542 5.60559 2.47773 5.55863C2.80559 5.53994 2.55141 7.40613 2.99293 7.34491Z" fill="#D5EAEF"/>
<path fill-rule="evenodd" clip-rule="evenodd" d="M3.87079 15.5165C3.96964 15.6482 4.06415 15.767 4.15131 15.873C4.1701 15.8959 4.18928 15.9186 4.20846 15.9414C5.60097 17.6874 8.02056 18.894 9.33864 19.3739C10.244 19.7035 11.8999 20.067 13.0485 20.1866L13.0629 19.3997C8.27584 18.8042 5.26688 16.7327 3.87079 15.5165" fill="#6F8EA7"/>
<mask id="mask0" mask-type="alpha" maskUnits="userSpaceOnUse" x="7" y="24" width="17" height="4">
<path fill-rule="evenodd" clip-rule="evenodd" d="M7.80991 24.7386H23.5491V28H7.80991L7.80991 24.7386Z" fill="white"/>
</mask>
<g mask="url(#mask0)">
<path fill-rule="evenodd" clip-rule="evenodd" d="M23.5496 26.3688C23.5496 27.2694 20.0263 27.9995 15.68 27.9995C11.3338 27.9995 7.81049 27.2694 7.81049 26.3688C7.81049 25.4683 11.3338 24.7382 15.68 24.7382C20.0263 24.7382 23.5496 25.4683 23.5496 26.3688" fill="#E9ECEE"/>
</g>
<path fill-rule="evenodd" clip-rule="evenodd" d="M17.98 13.9413C17.98 13.9413 17.1592 13.0902 15.7712 13.1188L15.7712 13.1098C14.1642 13.1539 13.0858 13.8054 13.0858 13.8054C11.1613 14.4315 9.5857 18.3488 9.5857 18.3488L9.55482 18.9965C9.33638 19.6646 8.47513 19.874 9.44335 22.2113C9.44335 22.2113 10.0185 22.4431 11.2801 22.3663C11.2801 22.3663 11.0624 22.4456 11.3158 21.8959C11.4425 21.6212 12.2687 21.7417 12.1267 21.2598C12.1267 21.2598 11.6086 21.5405 11.5012 21.0631C11.5012 21.0631 11.5797 20.9208 10.7288 20.6621C10.7288 20.6621 11.0735 19.8588 11.254 18.5955C11.2576 18.5709 11.9028 16.1588 12.9841 15.5728C13.0072 15.8604 12.9115 17.5901 12.8915 19.7974L12.7843 24.1857C12.7843 24.1857 9.57798 25.4699 10.0305 26.3015C10.0305 26.3015 10.1787 26.5307 10.5919 26.6258C11.2729 26.7824 13.0876 26.8145 14.2608 26.7079C14.2608 26.7079 15.3491 26.5766 15.5128 26.0125C15.5828 25.7714 15.5502 25.5661 15.4831 24.9838C15.4831 24.9838 15.3347 24.424 15.2828 23.7384C15.1244 21.6475 15.3806 21.2382 15.7222 21.2065C16.0638 21.2382 16.3856 21.4504 16.1616 23.7384C16.0945 24.4227 15.9457 24.9759 15.9457 24.9759C15.8786 25.5581 15.8616 25.7714 15.9316 26.0125C16.0952 26.5766 17.1974 26.7079 17.1974 26.7079C18.4369 26.8314 20.3972 26.6728 20.8961 26.4917C21.2947 26.3472 21.2794 26.245 21.2794 26.245C21.7319 25.4134 18.5997 24.1255 18.5997 24.1255L18.3531 19.6252C18.3331 17.4179 18.1406 15.8698 18.1636 15.5822" fill="#89A6BE"/>
<path d="M17.3512 21.5532C17.6488 20.9747 17.6935 20.2972 17.6916 19.6645C17.6896 18.9604 17.7913 18.2959 17.818 17.5976C17.8393 17.0429 17.9214 16.2783 17.5818 15.8226C17.2118 15.3259 16.072 15.456 15.4698 15.4723C14.8907 15.456 13.9535 15.3259 13.5834 15.8226C13.2439 16.2783 13.326 17.0429 13.3472 17.5976C13.3739 18.2959 13.4756 18.9604 13.4736 19.6645C13.4718 20.2972 13.5165 20.9747 13.814 21.5532C14.111 22.1304 14.65 22.3574 15.2358 22.3922C15.266 21.4583 15.469 21.2304 15.7185 21.2073C15.9722 21.2308 16.2144 21.3558 16.2309 22.3543C16.6956 22.2654 17.1063 22.0294 17.3512 21.5532" fill="white"/>
<path fill-rule="evenodd" clip-rule="evenodd" d="M15.518 25.1229C15.518 25.1229 15.346 24.4257 15.2821 23.698C15.2555 23.3954 15.241 23.1284 15.2364 22.8912C14.6175 23.0483 13.5535 22.9589 13.5535 22.9589C13.1384 22.9589 12.9169 22.8989 12.815 22.8589L12.7835 24.1453C12.7835 24.1453 9.69475 24.9938 10.0298 26.2612C10.0298 26.2612 9.98661 27.181 12.8726 27.2334C12.8726 27.2334 16.1121 27.2853 15.5193 25.134C15.5188 25.1302 15.5185 25.1269 15.518 25.1229" fill="#89A6BE"/>
<path fill-rule="evenodd" clip-rule="evenodd" d="M15.9054 25.1159C15.9054 25.1159 16.0964 24.4729 16.1603 23.7453C16.1869 23.4426 16.2215 23.132 16.2261 22.8949C16.845 23.0519 17.8699 22.952 17.8699 22.952C18.339 22.9153 18.4317 22.8645 18.5336 22.8246L18.6049 24.1231C18.6049 24.1231 21.7286 24.9868 21.3936 26.2542C21.3936 26.2542 21.4368 27.174 18.5507 27.2264C18.5507 27.2264 15.3113 27.2783 15.9041 25.127C15.9046 25.1232 15.9049 25.1199 15.9054 25.1159" fill="#89A6BE"/>
<path fill-rule="evenodd" clip-rule="evenodd" d="M12.9841 15.5728V15.2027C12.9841 15.2027 11.3467 16.0354 10.8833 18.8115L11.2437 18.8012C11.2437 18.8012 11.841 16.313 12.9841 15.5728" fill="#6F8EA7"/>
<path d="M13.596 21.1182C13.6467 21.3279 13.7158 21.5325 13.8151 21.7256C14.1121 22.3027 14.7472 22.5297 15.333 22.5646C15.3632 21.6307 15.572 21.4439 15.7196 21.4439C15.8465 21.4439 16.0412 21.7444 16.0855 22.5266C16.5502 22.4377 17.1074 22.2018 17.3524 21.7256C17.454 21.5279 17.5245 21.3183 17.5754 21.1033C15.5449 21.3359 14.034 21.1765 13.596 21.1182" fill="#D5EAEF"/>
<path d="M11.7665 18.3429C11.6803 18.7316 11.5815 19.2432 11.6211 19.3919C11.6211 19.3919 12.776 20.0837 12.6111 20.7426C12.6111 20.7426 12.5315 21.0424 12.2209 21.1693C12.2209 21.1693 12.8139 22.7974 11.2396 22.9595C11.2396 22.9595 9.05688 23.3048 8.71464 20.9682C8.71464 20.9682 8.55036 20.1248 8.92109 17.9041C8.92109 17.9041 8.99662 17.2717 9.81464 17.4483C9.81464 17.4483 10.5758 17.8276 11.5644 17.8628C11.8384 17.8726 11.8249 18.0796 11.7665 18.3429" fill="#D5EAEF"/>
<path d="M11.2301 22.3665C11.8238 22.3139 12.1501 22.1066 12.3234 21.8514C12.3163 22.3182 12.1147 22.8687 11.2331 22.9595C11.2331 22.9595 9.4488 23.1946 8.91336 21.6901C9.69666 22.5292 11.2301 22.3665 11.2301 22.3665" fill="#AED2DB"/>
<path d="M10.4002 21.2965C10.5123 21.2965 10.6078 21.2633 10.6852 21.1973C10.8472 21.0576 10.8557 20.8237 10.8561 20.8136C10.9048 19.9172 11.0637 18.8475 11.0653 18.8367C11.1148 18.4927 10.9091 18.3472 10.7935 18.3186C10.133 18.2564 8.92993 17.8977 8.92142 17.8939L8.88273 18.0915C8.91947 18.107 10.0847 18.4502 10.7602 18.5128C10.7602 18.5147 10.9044 18.5633 10.8696 18.8081C10.8681 18.8181 10.7076 19.8971 10.6581 20.8055C10.6581 20.8094 10.6512 20.9665 10.5553 21.0479C10.505 21.0908 10.4369 21.107 10.3484 21.0958C10.3395 21.0947 9.24849 20.9003 8.68781 20.6502L8.69708 20.8517C9.28559 21.1142 10.2896 21.288 10.3252 21.2919C10.3507 21.295 10.3758 21.2965 10.4002 21.2965" fill="#AED2DB"/>
<path d="M10.1331 19.0598C10.1331 19.1872 10.2365 19.2904 10.364 19.2904C10.4916 19.2904 10.595 19.1872 10.595 19.0598C10.595 18.9324 10.4916 18.8292 10.364 18.8292C10.2365 18.8292 10.1331 18.9324 10.1331 19.0598" fill="#35D2DB"/>
<path d="M9.50919 18.9734C9.50919 19.1008 9.61261 19.204 9.74015 19.204C9.86772 19.204 9.97115 19.1008 9.97115 18.9734C9.97115 18.8461 9.86772 18.7428 9.74015 18.7428C9.61261 18.7428 9.50919 18.8461 9.50919 18.9734" fill="#FF4BDB"/>
<path d="M8.90402 18.8457C8.90402 18.973 9.00745 19.0763 9.13499 19.0763C9.26256 19.0763 9.36595 18.973 9.36595 18.8457C9.36595 18.7183 9.26256 18.6151 9.13499 18.6151C9.00745 18.6151 8.90402 18.7183 8.90402 18.8457" fill="#7BC100"/>
<path d="M10.0712 19.7307C10.0712 19.858 10.1747 19.9613 10.3022 19.9613C10.4298 19.9613 10.5332 19.858 10.5332 19.7307C10.5332 19.6033 10.4298 19.5001 10.3022 19.5001C10.1747 19.5001 10.0712 19.6033 10.0712 19.7307" fill="#00C854"/>
<path d="M9.44739 19.6443C9.44739 19.7717 9.55081 19.8749 9.67838 19.8749C9.80592 19.8749 9.90935 19.7717 9.90935 19.6443C9.90935 19.5169 9.80592 19.4137 9.67838 19.4137C9.55081 19.4137 9.44739 19.5169 9.44739 19.6443" fill="#1692DB"/>
<path d="M8.84225 19.5165C8.84225 19.6439 8.94568 19.7471 9.07322 19.7471C9.20079 19.7471 9.30418 19.6439 9.30418 19.5165C9.30418 19.3892 9.20079 19.2859 9.07322 19.2859C8.94568 19.2859 8.84225 19.3892 8.84225 19.5165" fill="#F7AD00"/>
<path d="M9.79973 20.8063L9.30361 20.7049C9.09898 20.6631 8.94514 20.4659 8.96174 20.2668C8.97833 20.0677 9.15934 19.9389 9.364 19.9807L9.86009 20.0821C10.0647 20.124 10.2186 20.3211 10.202 20.5203C10.1854 20.7194 10.0044 20.8482 9.79973 20.8063" fill="#AED2DB"/>
<path fill-rule="evenodd" clip-rule="evenodd" d="M19.125 1.29696C18.974 1.25168 18.1097 0.925578 17.0445 0.706829C16.8281 0.662378 16.7537 0.390875 16.5259 0.35294C16.3405 0.322115 16.2478 0.568878 16.0624 0.538021C15.874 0.506667 15.9389 0.198751 15.7226 0.167894C15.4779 0.133001 15.2901 0.507163 15.0429 0.507163C14.6354 0.507163 14.9811 0.0445279 14.6413 0.0753526C14.3969 0.097545 14.2706 0.507163 13.5673 0.741688C12.6533 1.04646 11.9044 1.24183 11.7678 1.28238C10.4305 1.67943 7.40539 2.6468 7.11704 4.89726C7.11704 4.89726 6.46689 10.5802 11.1259 13.6196C11.1259 13.6196 11.7519 14.2009 15.5086 14.2118C15.5724 14.2124 15.5873 14.2128 15.6037 14.2128C19.0753 14.1684 19.8624 13.5637 19.8624 13.5637C24.5107 10.6003 23.8061 4.72951 23.8061 4.72951C23.5198 2.49552 20.4725 1.70102 19.125 1.29696Z" fill="#89A6BE"/>
<path d="M18.7482 2.94061C18.7482 2.94061 13.7126 2.95123 12.6331 2.00178C12.2006 1.62137 12.4581 1.11756 12.6901 1.01278C12.9482 0.935421 13.2444 0.843146 13.5605 0.73774C14.2638 0.503248 14.3946 0.0592997 14.6389 0.0371073C14.9788 0.00624954 14.6678 0.471993 15.0313 0.477748C15.2784 0.481684 15.476 0.100146 15.7207 0.135039C15.937 0.165863 15.8669 0.475201 16.0553 0.506555C16.2407 0.537413 16.3637 0.287343 16.549 0.318167C16.7769 0.356103 16.8501 0.651616 17.0665 0.696034C17.5114 0.787384 17.9102 0.900032 18.2392 1.00253C18.4463 1.06702 18.8121 1.64194 18.0912 2.12518C17.7046 2.38435 19.3983 2.71399 18.7482 2.94061" fill="#D5EAEF"/>
<path d="M12.8958 2.09532C13.1593 2.32849 13.5231 2.39682 13.8535 2.47746C14.2396 2.57168 14.6071 2.75065 15.0068 2.79126C15.8136 2.87325 15.997 2.82172 16.7421 2.57377C17.3497 2.37156 18.236 2.02207 18.3024 1.63256C18.3272 1.48733 18.256 1.27179 17.9779 1.18577C17.7946 1.11734 17.615 1.16804 17.2673 1.09323C17.0623 1.04911 16.8101 0.865645 16.5668 0.833068C16.3731 0.807171 16.2312 0.891112 16.0316 0.87732C15.8634 0.865679 15.6372 0.75422 15.4755 0.753923C15.2124 0.753493 15.0955 0.88162 14.8266 0.908145C14.6585 0.924748 14.3356 0.832373 14.1748 0.857873C13.9294 0.896768 13.8286 1.03743 13.6218 1.09323C13.4082 1.15087 13.0904 1.12415 12.9464 1.19489C12.5173 1.3592 12.4475 1.69871 12.8958 2.09532" fill="white"/>
<path fill-rule="evenodd" clip-rule="evenodd" d="M21.2881 2.41954H15.4975H9.70686C8.20456 2.41954 6.9754 3.64671 6.9754 5.14656L7.17708 5.68315C7.17708 6.67708 7.73551 7.42676 8.36994 8.04342C9.51558 9.15691 11.3561 9.34285 11.8628 9.34285C11.8628 9.34285 12.8074 9.34285 15.4975 8.4235C18.2776 9.26427 19.1434 9.30356 19.1434 9.30356C19.6502 9.30356 21.4793 9.15691 22.625 8.04342C23.2594 7.42676 23.8179 6.67708 23.8179 5.68315L23.7162 5.2055C23.7162 3.70568 22.7904 2.41954 21.2881 2.41954" fill="#6F8EA7"/>
<path fill-rule="evenodd" clip-rule="evenodd" d="M15.6409 13.0728V13.0737C15.62 13.0737 15.601 13.0733 15.5801 13.0732C15.5593 13.0733 15.5404 13.0737 15.5195 13.0737V13.0728C11.825 13.0643 10.0278 12.5433 9.61588 12.3846C9.92681 12.6611 10.1239 13.0147 11.1219 13.6196C11.1219 13.6196 12.2246 14.2704 15.5046 14.2118V14.2128C15.521 14.2128 15.5358 14.2124 15.5521 14.2123C15.5685 14.2124 15.5834 14.2128 15.5998 14.2128V14.2118C18.8343 14.1945 19.4894 13.7283 19.8362 13.5813C19.8572 13.5724 19.8736 13.5555 19.8935 13.5443C20.6858 13.102 21.3609 12.3634 21.5176 12.1694C21.0676 12.3542 19.1106 13.0648 15.6409 13.0728" fill="#6F8EA7"/>
<path fill-rule="evenodd" clip-rule="evenodd" d="M16.9444 9.21818C18.1572 10.6141 18.1572 11.5173 18.1572 11.5173C18.3426 13.7185 15.5343 13.6534 15.4941 13.6523C15.4547 13.6534 12.7002 13.7185 12.8853 11.5173C12.8853 11.5173 12.8853 10.6141 14.0982 9.21818C14.0982 9.21818 14.4647 8.7236 15.4494 8.7236C15.4494 8.7236 16.4014 8.63314 16.9444 9.21818" fill="white"/>
<path fill-rule="evenodd" clip-rule="evenodd" d="M15.4848 12.6702C15.4511 12.671 13.7637 12.704 12.8765 11.9269C13.0457 13.7095 15.4471 13.6533 15.4839 13.6523C15.5214 13.6533 17.9693 13.7094 18.1451 11.9274C17.2388 12.704 15.5191 12.671 15.4848 12.6702" fill="#D1F2FF"/>
<path d="M15.5228 10.8048C15.4992 10.8048 15.4843 10.8039 15.4799 10.8039C14.534 10.7882 14.0693 10.15 14.0501 10.1229L14.2325 9.99314C14.2496 10.0168 14.6548 10.5667 15.4873 10.5802C15.5018 10.5837 16.3834 10.6139 16.8139 9.92239L17.0038 10.0403C16.5562 10.7598 15.7232 10.8048 15.5228 10.8048" fill="#6F8AA7"/>
<path fill-rule="evenodd" clip-rule="evenodd" d="M16.195 9.31143C16.195 9.51215 15.8816 9.67487 15.495 9.67487C15.1084 9.67487 14.795 9.51215 14.795 9.31143C14.795 9.1107 15.1084 8.94802 15.495 8.94802C15.8816 8.94802 16.195 9.1107 16.195 9.31143" fill="#3E414C"/>
<path fill-rule="evenodd" clip-rule="evenodd" d="M11.4953 1.3631C11.3626 0.488402 10.2819 0.332559 9.67424 0.588946C8.91429 0.909628 8.38193 1.34895 7.61646 1.67657C6.87868 1.99233 6.23793 2.17658 5.58912 2.57757C4.82 3.0529 4.52338 4.03932 4.48485 4.91029C4.40621 6.68882 5.27004 7.67085 5.70391 9.33683C6.05987 10.7037 5.89466 11.6055 6.68965 11.7972C7.93985 12.0987 8.8595 10.0532 8.82541 9.1455C8.77821 7.88907 8.45064 7.68073 8.15342 6.83408C7.81347 5.86585 7.80257 5.02915 7.93713 4.15062C8.10966 3.02426 9.36691 2.17268 10.5376 1.70836C10.8395 1.5886 10.9663 1.53723 11.2837 1.43351L11.4953 1.3631Z" fill="#556878"/>
<path fill-rule="evenodd" clip-rule="evenodd" d="M5.69256 2.97852C6.36183 2.57757 7.02276 2.39331 7.7839 2.07756C8.57352 1.74993 9.12271 1.31058 9.90664 0.989931C10.3487 0.809084 11.0333 0.83379 11.4466 1.17071C11.1952 0.46697 10.2341 0.352701 9.67425 0.588946C8.91427 0.909628 8.38191 1.34895 7.61644 1.67657C6.87865 1.99233 6.23794 2.17658 5.58914 2.57757C4.81998 3.0529 4.52336 4.03932 4.48483 4.91029C4.46443 5.3716 4.50779 5.77903 4.59024 6.15898C4.55453 5.89456 4.53956 5.61472 4.55337 5.31127C4.59313 4.44031 4.89912 3.45389 5.69256 2.97852Z" fill="#8996A1"/>
<path fill-rule="evenodd" clip-rule="evenodd" d="M19.3329 1.35428C19.4656 0.479585 20.5283 0.33254 21.1359 0.588927C21.8959 0.909609 22.4282 1.34893 23.1937 1.67655C23.9315 1.99234 24.5722 2.17656 25.221 2.57755C25.9901 3.05292 26.2868 4.0393 26.3253 4.9103C26.4039 6.68884 25.5401 7.67083 25.1062 9.33685C24.7503 10.7037 24.9155 11.6054 24.1205 11.7972C22.8703 12.0987 21.9506 10.0533 21.9847 9.14548C22.0319 7.88908 22.5192 7.59618 22.8165 6.74953C23.1564 5.78126 23.0076 5.02913 22.873 4.15063C22.7005 3.02427 21.4432 2.17269 20.2725 1.70837C19.9707 1.58861 19.8458 1.53371 19.5119 1.42308L19.3329 1.35428Z" fill="#556878"/>
<path fill-rule="evenodd" clip-rule="evenodd" d="M26.2696 5.31127C26.2298 4.44031 25.9238 3.45389 25.1304 2.97852C24.4611 2.57757 23.8002 2.39331 23.0391 2.07756C22.2494 1.74993 21.7003 1.31058 20.9163 0.989931C20.4742 0.809084 19.7897 0.83379 19.3763 1.17071C19.6277 0.46697 20.5888 0.352701 21.1487 0.588946C21.9087 0.909628 22.441 1.34895 23.2065 1.67657C23.9443 1.99233 24.585 2.17658 25.2338 2.57757C26.003 3.0529 26.2996 4.03932 26.3381 4.91029C26.3585 5.3716 26.3151 5.77903 26.2327 6.15898C26.2684 5.89456 26.2834 5.61472 26.2696 5.31127" fill="#8996A1"/>
<path fill-rule="evenodd" clip-rule="evenodd" d="M20.5433 8.20408H10.3255C8.93681 8.20408 7.80057 7.06968 7.80057 5.68324V4.9537C7.80057 3.56722 8.93681 2.43282 10.3255 2.43282H20.5433C21.932 2.43282 23.0683 3.56722 23.0683 4.9537V5.68324C23.0683 7.06968 21.932 8.20408 20.5433 8.20408" fill="#2DEB00"/>
<path fill-rule="evenodd" clip-rule="evenodd" d="M20.238 2.88927H10.7575C9.38974 2.88927 8.27069 3.94489 8.27069 5.23512V5.68661C8.27069 4.39637 9.38974 3.34073 10.7575 3.34073H20.238C21.6058 3.34073 22.7249 4.39637 22.7249 5.68661V5.23512C22.7249 3.94489 21.6058 2.88927 20.238 2.88927" fill="#C6FF21"/>
<path fill-rule="evenodd" clip-rule="evenodd" d="M10.421 3.54317C10.421 3.7391 10.2619 3.89792 10.0657 3.89792C9.86947 3.89792 9.71036 3.7391 9.71036 3.54317C9.71036 3.34725 9.86947 3.18843 10.0657 3.18843C10.2619 3.18843 10.421 3.34725 10.421 3.54317" fill="white"/>
<path fill-rule="evenodd" clip-rule="evenodd" d="M9.59702 3.86879C9.59702 3.9439 9.53603 4.00476 9.46083 4.00476C9.38563 4.00476 9.32465 3.9439 9.32465 3.86879C9.32465 3.79368 9.38563 3.73283 9.46083 3.73283C9.53603 3.73283 9.59702 3.79368 9.59702 3.86879" fill="white"/>
<path fill-rule="evenodd" clip-rule="evenodd" d="M10.2599 8.7087H20.716C22.359 8.7087 23.6957 7.37415 23.6957 5.73379V4.94945C23.6957 3.30909 22.359 1.97454 20.716 1.97454H10.2599C8.61684 1.97454 7.28015 3.30909 7.28015 4.94945V5.73379C7.28015 7.37415 8.61684 8.7087 10.2599 8.7087ZM8.03065 4.94945C8.03065 3.72222 9.03066 2.72382 10.2599 2.72382H20.7159C21.9452 2.72382 22.9452 3.72222 22.9452 4.94945V5.73379C22.9452 6.96103 21.9452 7.95942 20.7159 7.95942H10.2599C9.03066 7.95942 8.03065 6.96103 8.03065 5.73379V4.94945Z" fill="#3E414C"/>
<path d="M14.6137 6.5413C14.6137 7.12581 14.1391 7.59966 13.5536 7.59966C12.9681 7.59966 12.4935 7.12581 12.4935 6.5413C12.4935 5.95679 12.9681 5.48294 13.5536 5.48294C14.1391 5.48294 14.6137 5.95679 14.6137 6.5413" fill="#00BD00"/>
<path d="M16.3813 6.5413C16.3813 7.12581 16.8559 7.59966 17.4413 7.59966C18.0268 7.59966 18.5014 7.12581 18.5014 6.5413C18.5014 5.95679 18.0268 5.48294 17.4413 5.48294C16.8559 5.48294 16.3813 5.95679 16.3813 6.5413" fill="#00BD00"/>
<path fill-rule="evenodd" clip-rule="evenodd" d="M20.508 8.1942L10.3582 8.1942C8.97869 8.1942 7.85001 7.06738 7.85001 5.69013V4.96542C7.85001 3.5882 8.97869 2.46138 10.3582 2.46138L20.508 2.46138C21.8875 2.46138 23.0161 3.5882 23.0161 4.96542V5.69013C23.0161 7.06738 21.8875 8.1942 20.508 8.1942" fill="#6CC8F2"/>
<path fill-rule="evenodd" clip-rule="evenodd" d="M20.2048 2.91476L10.7873 2.91476C9.14073 2.91476 8.31702 3.96336 8.31702 5.245V5.69348C8.31702 4.41184 9.42867 3.36324 10.7873 3.36324L20.2048 3.36324C21.5635 3.36324 22.675 4.41184 22.675 5.69348V5.245C22.675 3.96336 21.7777 2.91476 20.2048 2.91476" fill="#AAE4FF"/>
<path fill-rule="evenodd" clip-rule="evenodd" d="M10.4531 3.5643C10.4531 3.75891 10.2951 3.91667 10.1002 3.91667C9.90524 3.91667 9.74719 3.75891 9.74719 3.5643C9.74719 3.3697 9.90524 3.21194 10.1002 3.21194C10.2951 3.21194 10.4531 3.3697 10.4531 3.5643" fill="white"/>
<path fill-rule="evenodd" clip-rule="evenodd" d="M9.63457 3.88776C9.63457 3.96234 9.57398 4.0228 9.49928 4.0228C9.42457 4.0228 9.36398 3.96234 9.36398 3.88776C9.36398 3.81318 9.42457 3.75272 9.49928 3.75272C9.57398 3.75272 9.63457 3.81318 9.63457 3.88776" fill="white"/>
<path fill-rule="evenodd" clip-rule="evenodd" d="M10.293 8.69548L20.6795 8.69548C22.3116 8.69548 23.6394 7.36982 23.6394 5.74034V4.96126C23.6394 3.33178 22.3116 2.00612 20.6795 2.00612L10.293 2.00612C8.66091 2.00612 7.3331 3.33178 7.3331 4.96126L7.3331 5.74034C7.3331 7.36982 8.66091 8.69548 10.293 8.69548ZM8.07862 4.96126C8.07862 3.74216 9.07201 2.75041 10.2931 2.75041L20.6795 2.75041C21.9006 2.75041 22.8939 3.74216 22.8939 4.96126V5.74034C22.8939 6.9594 21.9006 7.95118 20.6795 7.95118L10.2931 7.95118C9.07201 7.95118 8.07862 6.9594 8.07862 5.74034V4.96126Z" fill="#3E414C"/>
<path d="M12.9017 6.94383H12.8503C12.6632 6.94383 12.5102 6.76307 12.5102 6.54211V6.0672C12.5102 5.84628 12.6632 5.66548 12.8503 5.66548H12.9017C13.0888 5.66548 13.2419 5.84628 13.2419 6.0672V6.54211C13.2419 6.76307 13.0888 6.94383 12.9017 6.94383" fill="#AAE4FF"/>
<path d="M14.1822 6.94383H14.1307C13.9437 6.94383 13.7906 6.78786 13.7906 6.59719V5.46426C13.7906 5.27359 13.9437 5.11762 14.1307 5.11762H14.1822C14.3692 5.11762 14.5223 5.27359 14.5223 5.46426V6.59719C14.5223 6.78786 14.3692 6.94383 14.1822 6.94383" fill="#AAE4FF"/>
<path d="M15.4626 6.94383H15.4112C15.2241 6.94383 15.071 6.77923 15.071 6.57802V4.75295C15.071 4.55173 15.2241 4.38713 15.4112 4.38713H15.4626C15.6496 4.38713 15.8027 4.55173 15.8027 4.75295V6.57802C15.8027 6.77923 15.6496 6.94383 15.4626 6.94383" fill="#AAE4FF"/>
<path d="M18.0234 6.94383H17.972C17.7849 6.94383 17.6319 6.77923 17.6319 6.57802V4.75295C17.6319 4.55173 17.7849 4.38713 17.972 4.38713H18.0234C18.2105 4.38713 18.3636 4.55173 18.3636 4.75295V6.57802C18.3636 6.77923 18.2105 6.94383 18.0234 6.94383" fill="#AAE4FF"/>
<path d="M16.7431 6.94383H16.6916C16.5046 6.94383 16.3515 6.78786 16.3515 6.59719V5.46426C16.3515 5.27359 16.5046 5.11762 16.6916 5.11762H16.7431C16.9301 5.11762 17.0832 5.27359 17.0832 5.46426V6.59719C17.0832 6.78786 16.9301 6.94383 16.7431 6.94383" fill="#AAE4FF"/>
</svg>
