<svg fill="none" height="16" viewBox="0 0 16 16" width="16" xmlns="http://www.w3.org/2000/svg" xmlns:xlink="http://www.w3.org/1999/xlink"><linearGradient id="a" gradientUnits="userSpaceOnUse" x1="8" x2="8" y1="2" y2="14"><stop offset="0" stop-color="#5d7bf4"/><stop offset="1" stop-color="#a166f7"/></linearGradient><path d="m13.6786 6.28571h-3.3215c-.3562 0-.64281-.2866-.64281-.64285v-3.32143c0-.17679.14464-.32143.32141-.32143h1.0714c.1768 0 .3215.14464.3215.32143v2.25h2.25c.1768 0 .3214.14464.3214.32143v1.07143c0 .17678-.1446.32142-.3214.32142zm-7.39289-.64285v-3.32143c0-.17679-.14464-.32143-.32142-.32143h-1.07143c-.17679 0-.32143.14464-.32143.32143v2.25h-2.25c-.17679 0-.32143.14464-.32143.32143v1.07143c0 .17678.14464.32142.32143.32142h3.32143c.35625 0 .64285-.2866.64285-.64285zm0 8.03574v-3.3215c0-.3562-.2866-.64281-.64285-.64281h-3.32143c-.17679 0-.32143.14464-.32143.32141v1.0714c0 .1768.14464.3215.32143.3215h2.25v2.25c0 .1768.14464.3214.32143.3214h1.07143c.17678 0 .32142-.1446.32142-.3214zm5.14289 0v-2.25h2.25c.1768 0 .3214-.1447.3214-.3215v-1.0714c0-.17677-.1446-.32141-.3214-.32141h-3.3215c-.3562 0-.64281.28661-.64281.64281v3.3215c0 .1768.14464.3214.32141.3214h1.0714c.1768 0 .3215-.1446.3215-.3214z" fill="url(#a)"/></svg>