<svg enable-background="new 0 0 512 512" height="16" viewBox="0 0 512 512" width="16" xmlns="http://www.w3.org/2000/svg" xmlns:xlink="http://www.w3.org/1999/xlink"><linearGradient id="a" gradientUnits="userSpaceOnUse" x1="256" x2="256" y1="512" y2="11.261"><stop offset="0" stop-color="#5558ff"/><stop offset="1" stop-color="#00c0ff"/></linearGradient><linearGradient id="b" gradientUnits="userSpaceOnUse" x1="365.628" x2="365.628" y1="302" y2="0"><stop offset="0" stop-color="#addcff"/><stop offset=".5028" stop-color="#eaf6ff"/><stop offset="1" stop-color="#eaf6ff"/></linearGradient><path d="m499.281 309.646c-5.669-3.545-13.008-2.842-17.988 1.641-36.065 32.695-82.471 50.713-130.665 50.713-107.52 0-195-87.48-195-195 0-48.164 18.003-94.57 50.713-130.664 4.497-4.951 5.156-12.305 1.626-17.988s-10.4-8.32-16.831-6.533c-109.219 30.937-185.508 131.747-185.508 245.185 0 140.596 114.39 255 255 255 113.438 0 214.263-76.289 245.171-185.537 1.831-6.416-.835-13.301-6.518-16.817z" fill="url(#a)"/><path d="m380.628 212c-24.814 0-45-20.186-45-45 0-8.291-6.709-15-15-15s-15 6.709-15 15c0 24.814-20.186 45-45 45-8.291 0-15 6.709-15 15s6.709 15 15 15c24.814 0 45 20.186 45 45 0 8.291 6.709 15 15 15s15-6.709 15-15c0-24.814 20.186-45 45-45 8.291 0 15-6.709 15-15s-6.709-15-15-15zm90-152c-24.814 0-45-20.186-45-45 0-8.291-6.709-15-15-15s-15 6.709-15 15c0 24.814-20.186 45-45 45-8.291 0-15 6.709-15 15s6.709 15 15 15c24.814 0 45 20.186 45 45 0 8.291 6.709 15 15 15s15-6.709 15-15c0-24.814 20.186-45 45-45 8.291 0 15-6.709 15-15s-6.709-15-15-15z" fill="url(#b)"/></svg>