<svg fill="none" height="16" viewBox="0 0 16 16" width="16" xmlns="http://www.w3.org/2000/svg" xmlns:xlink="http://www.w3.org/1999/xlink"><linearGradient id="a" gradientUnits="userSpaceOnUse" x1="8" x2="8" y1="4" y2="13"><stop offset="0" stop-color="#4285f7"/><stop offset="1" stop-color="#b75ef7"/></linearGradient><path d="m13.7727 6.97188c.0914-.07266.2273-.00469.2273.11015v4.79297c0 .6211-.5039 1.125-1.125 1.125h-9.75c-.62109 0-1.125-.5039-1.125-1.125v-4.79062c0-.11719.13359-.18282.22734-.11016.525.40781 1.2211.92578 3.61172 2.6625.49453.36094 1.32891 1.12028 2.16094 1.11558.83672.0071 1.6875-.76871 2.1633-1.11558 2.3906-1.73672 3.0844-2.25703 3.6094-2.66484zm-5.7727 3.02812c.54375.0094 1.32656-.68437 1.72031-.97031 3.11019-2.25703 3.34689-2.45391 4.06409-3.01641.1359-.10547.2156-.26953.2156-.44297v-.44531c0-.62109-.5039-1.125-1.125-1.125h-9.75c-.62109 0-1.125.50391-1.125 1.125v.44531c0 .17344.07969.33516.21563.44297.71718.56016.9539.75938 4.06406 3.01641.39375.28594 1.17656.97971 1.72031.97031z" fill="url(#a)"/></svg>