<svg fill="none" height="16" viewBox="0 0 16 16" width="16" xmlns="http://www.w3.org/2000/svg"><path d="m14.7348 6.46719c.1066-.08477.2652-.00547.2652.12851v5.5918c0 .7246-.5879 1.3125-1.3125 1.3125h-11.375c-.72461 0-1.3125-.5879-1.3125-1.3125v-5.58906c0-.13672.15586-.21328.26523-.12852.6125.47578 1.42461 1.08008 4.21368 3.10625.57695.4211 1.55039 1.30703 2.52109 1.30153.97617.0082 1.96875-.89684 2.5238-1.30153 2.7891-2.02617 3.5985-2.6332 4.211-3.10898zm-6.7348 3.53281c.63438.0109 1.54766-.79844 2.007-1.13203 3.6285-2.6332 3.9047-2.86289 4.7414-3.51914.1586-.12305.2516-.31445.2516-.5168v-.51953c0-.72461-.5879-1.3125-1.3125-1.3125h-11.375c-.72461 0-1.3125.58789-1.3125 1.3125v.51953c0 .20235.09297.39102.25156.5168.83672.65351 1.11289.88594 4.74141 3.51914.45937.33359 1.37265 1.14293 2.00703 1.13203z" fill="#4f5258"/></svg>