<svg fill="none" height="16" viewBox="0 0 16 16" width="16" xmlns="http://www.w3.org/2000/svg" xmlns:xlink="http://www.w3.org/1999/xlink"><linearGradient id="a" gradientUnits="userSpaceOnUse" x1="8" x2="8" y1="2" y2="14"><stop offset="0" stop-color="#5e7df7"/><stop offset="1" stop-color="#a468fc"/></linearGradient><path d="m2 5.96429v-3.32143c0-.35625.28661-.64286.64286-.64286h3.32143c.17678 0 .32142.14464.32142.32143v1.07143c0 .17678-.14464.32143-.32142.32143h-2.25v2.25c0 .17678-.14465.32142-.32143.32142h-1.07143c-.17679 0-.32143-.14464-.32143-.32142zm7.71429-3.64286v1.07143c0 .17678.14464.32143.32141.32143h2.25v2.25c0 .17678.1447.32142.3214.32142h1.0715c.1768 0 .3214-.14464.3214-.32142v-3.32143c0-.35625-.2866-.64286-.6429-.64286h-3.3214c-.17677 0-.32141.14464-.32141.32143zm3.96431 7.39286h-1.0715c-.1767 0-.3214.14464-.3214.32141v2.25h-2.25c-.17677 0-.32141.1447-.32141.3214v1.0715c0 .1768.14464.3214.32141.3214h3.3214c.3563 0 .6429-.2866.6429-.6429v-3.3214c0-.17677-.1446-.32141-.3214-.32141zm-7.39289 3.96431v-1.0715c0-.1767-.14464-.3214-.32142-.3214h-2.25v-2.25c0-.17677-.14465-.32141-.32143-.32141h-1.07143c-.17679 0-.32143.14464-.32143.32141v3.3214c0 .3563.28661.6429.64286.6429h3.32143c.17678 0 .32142-.1446.32142-.3214z" fill="url(#a)"/></svg>