<?xml version="1.0" encoding="iso-8859-1"?>
<!-- Generator: Adobe Illustrator 18.0.0, SVG Export Plug-In . SVG Version: 6.00 Build 0)  -->
<!DOCTYPE svg PUBLIC "-//W3C//DTD SVG 1.1//EN" "http://www.w3.org/Graphics/SVG/1.1/DTD/svg11.dtd">
<svg version="1.1" id="Capa_1" xmlns="http://www.w3.org/2000/svg" xmlns:xlink="http://www.w3.org/1999/xlink" x="0px" y="0px"
	 viewBox="0 0 490.932 490.932" width="16" height="16" style="enable-background:new 0 0 490.932 490.932;" xml:space="preserve">
<g id="XMLID_592_">
	<path id="XMLID_599_" d="M436.662,0H314.414c-17.966,0-32.532,14.566-32.532,32.531c0,17.967,14.566,32.531,32.532,32.531h106.649
		v106.65c0,17.965,14.566,32.531,32.532,32.531c17.966,0,32.532-14.566,32.532-32.531V49.465C486.127,22.189,463.936,0,436.662,0z"
		/>
	<path id="XMLID_598_" d="M37.893,204.244c17.965,0,32.532-14.566,32.532-32.531V65.063h106.649
		c17.966,0,32.532-14.564,32.532-32.531C209.606,14.566,195.04,0,177.074,0H54.826C27.552,0,5.361,22.189,5.361,49.465v122.248
		C5.361,189.678,19.927,204.244,37.893,204.244z"/>
	<path id="XMLID_597_" d="M453.038,286.685c-17.966,0-32.532,14.566-32.532,32.533v106.648H313.857
		c-17.966,0-32.531,14.566-32.531,32.531c0,17.967,14.565,32.533,32.531,32.533h122.248c27.275,0,49.465-22.191,49.465-49.465
		V319.219C485.57,301.252,471.004,286.685,453.038,286.685z"/>
	<path id="XMLID_596_" d="M176.517,425.867H69.869V319.219c0-17.967-14.567-32.533-32.532-32.533S4.805,301.252,4.805,319.219
		v122.248c0,27.273,22.19,49.465,49.464,49.465h122.248c17.966,0,32.532-14.566,32.532-32.533
		C209.05,440.434,194.483,425.867,176.517,425.867z"/>
	<path id="XMLID_593_" d="M357.809,245.449c0-61.951-50.394-112.336-112.336-112.336s-112.336,50.385-112.336,112.336
		s50.393,112.338,112.336,112.338S357.809,307.4,357.809,245.449z M245.473,325.256c-44,0-79.805-35.807-79.805-79.807
		c0-44.002,35.805-79.805,79.805-79.805c44.002,0,79.804,35.803,79.804,79.805C325.278,289.449,289.475,325.256,245.473,325.256z"/>
</g>
<g>
</g>
<g>
</g>
<g>
</g>
<g>
</g>
<g>
</g>
<g>
</g>
<g>
</g>
<g>
</g>
<g>
</g>
<g>
</g>
<g>
</g>
<g>
</g>
<g>
</g>
<g>
</g>
<g>
</g>
</svg>
