<?xml version="1.0" encoding="iso-8859-1"?>
<!-- Generator: Adobe Illustrator 21.0.2, SVG Export Plug-In . SVG Version: 6.00 Build 0)  -->
<svg xmlns="http://www.w3.org/2000/svg" xmlns:xlink="http://www.w3.org/1999/xlink" version="1.1" id="Layer_1" x="0px" y="0px" viewBox="0 0 48 48" style="enable-background:new 0 0 48 48;" xml:space="preserve" width="16px" height="16px">
<path style="fill:#8BC34A;" d="M24.001,4c-11.077,0-20,8.923-20,20s8.923,20,20,20c11.076,0,20-8.923,20-20S35.077,4,24.001,4z"/>
<path style="fill:#FFFFFF;" d="M31.747,33.915c-0.292,0-0.585-0.145-0.877-0.292c-2.777-1.607-6.139-2.484-9.792-2.484  c-2.047,0-4.093,0.291-5.993,0.73c-0.292,0-0.731,0.146-0.877,0.146c-0.731,0-1.169-0.586-1.169-1.17c0-0.73,0.438-1.17,1.023-1.314  c2.338-0.586,4.677-0.877,7.161-0.877c4.093,0,7.893,1.021,11.108,2.924c0.438,0.291,0.731,0.584,0.731,1.314  C32.916,33.478,32.331,33.915,31.747,33.915z M33.793,28.945c-0.438,0-0.73-0.144-1.023-0.291c-3.068-1.9-7.308-3.071-12.13-3.071  c-2.339,0-4.531,0.293-6.139,0.733c-0.439,0.144-0.585,0.144-0.877,0.144c-0.877,0-1.462-0.73-1.462-1.461  c0-0.877,0.439-1.316,1.169-1.607c2.192-0.584,4.385-1.023,7.454-1.023c4.97,0,9.793,1.17,13.593,3.507  c0.584,0.291,0.877,0.877,0.877,1.461C35.255,28.215,34.67,28.945,33.793,28.945z M36.132,23.101c-0.438,0-0.585-0.146-1.023-0.291  c-3.508-2.047-8.769-3.217-13.885-3.217c-2.631,0-5.262,0.293-7.6,0.877c-0.293,0-0.585,0.146-1.023,0.146  c-1.023,0.146-1.754-0.73-1.754-1.754c0-1.023,0.585-1.607,1.315-1.754c2.777-0.877,5.7-1.17,9.062-1.17  c5.554,0,11.4,1.17,15.785,3.654c0.584,0.293,1.022,0.877,1.022,1.754C37.886,22.369,37.154,23.101,36.132,23.101z"/>
</svg>
