<?xml version="1.0" encoding="iso-8859-1"?>
<!-- Generator: Adobe Illustrator 21.0.2, SVG Export Plug-In . SVG Version: 6.00 Build 0)  -->
<svg xmlns="http://www.w3.org/2000/svg" xmlns:xlink="http://www.w3.org/1999/xlink" version="1.1" id="Layer_1" x="0px" y="0px" viewBox="0 0 48 48" style="enable-background:new 0 0 48 48;" xml:space="preserve" width="16px" height="16px">
<path style="fill:#80D8FF;" d="M39.847,36.167c0.01-0.014,0.024-0.027,0.034-0.041l-0.033,0.008  c-0.01,0.014-0.022,0.027-0.033,0.041L39.847,36.167z"/>
<path style="fill:#00E5FF;" d="M14.627,41.645c4.036,2.155,8.823,2.946,13.644,1.891c4.821-1.054,8.842-3.77,11.61-7.412  L14.627,41.645z"/>
<path style="fill:#80D8FF;" d="M14.637,41.644l25.211-5.511c1.279-1.674,2.307-3.534,3.008-5.532L9.618,37.867  c1.465,1.516,3.158,2.791,5.009,3.779L14.637,41.644z"/>
<path style="fill:#82B1FF;" d="M43.937,25.49L6.504,33.673c0.856,1.55,1.915,2.952,3.12,4.2l33.226-7.254  C43.426,28.98,43.805,27.261,43.937,25.49z"/>
<path style="fill:#8C9EFF;" d="M43.937,25.49c0.14-1.885,0.024-3.82-0.4-5.762L4.464,28.27c0.425,1.941,1.126,3.748,2.04,5.402  L43.937,25.49z"/>
<path style="fill:#B388FF;" d="M43.537,19.73c-0.372-1.704-0.972-3.295-1.726-4.782L4.044,23.079  c-0.078,1.706,0.039,3.445,0.421,5.192L43.537,19.73z"/>
<path style="fill:#EA80FC;" d="M41.809,14.948c0.013,0.026,0.034,0.049,0.049,0.073c-1.1-2.182-2.568-4.113-4.318-5.722L5.562,16.29  c-0.891,2.127-1.396,4.421-1.505,6.785L41.809,14.948z"/>
<path style="fill:#FF80AB;" d="M37.54,9.3c0.012,0.011,0.029,0.018,0.042,0.03c-1.742-1.608-3.759-2.896-5.95-3.804L9.357,10.395  c-1.599,1.725-2.872,3.725-3.781,5.892L37.54,9.3z"/>
<path style="fill:#FF8A80;" d="M9.357,10.395l22.276-4.869c-3.641-1.508-7.76-1.968-11.903-1.063  C15.587,5.368,12.036,7.505,9.357,10.395L9.357,10.395z"/>
<path style="fill:#FFFFFF;" d="M24,5.999C14.06,5.999,6,14.059,6,24s8.059,18.001,18,18.001S42,33.941,42,24S33.941,5.999,24,5.999z   M33,28.312c0,2.577-2.09,4.668-4.667,4.668h-0.092c-1.623,0-2.977-0.943-3.225-2.546c-0.045-0.295-0.048-0.59-0.009-0.885  c0.164-1.264,1.064-2.291,2.255-2.646l0.264-0.064L30.315,26C30.718,25.897,31,25.535,31,25.119v-6.807  c0-0.565-0.489-0.994-1.046-0.896l-7.929,1.728C21.42,19.251,21,19.776,21,20.391v10.941C21,33.91,19.092,36,16.515,36h-0.092  c-1.623,0-3.138-1.104-3.386-2.707c-0.045-0.295-0.048-0.59-0.009-0.885c0.164-1.264,1.064-2.291,2.255-2.646l0.264-0.064  l2.77-0.819C18.718,28.778,19,28.415,19,28V14.667c0-0.604,0.433-1.12,1.027-1.225l11.905-2.428C32.49,10.916,33,11.344,33,11.91  V28.312z"/>
</svg>
