<?xml version="1.0" encoding="iso-8859-1"?>
<!-- Generator: Adobe Illustrator 19.0.0, SVG Export Plug-In . SVG Version: 6.00 Build 0)  -->
<svg version="1.1" id="Layer_1" xmlns="http://www.w3.org/2000/svg" xmlns:xlink="http://www.w3.org/1999/xlink" x="0px" y="0px"
	 viewBox="0 0 330.002 330.002" style="enable-background:new 0 0 330.002 330.002;" xml:space="preserve" width="12px" height="12px">
<g id="XMLID_9_">
	<path id="XMLID_10_" d="M169.392,199.395c-5.858,5.857-5.858,15.355,0,21.213c2.929,2.929,6.767,4.394,10.607,4.394
		c3.838,0,7.678-1.465,10.606-4.394l44.998-44.997c0.347-0.347,0.676-0.712,0.988-1.091c0.069-0.084,0.128-0.176,0.196-0.262
		c0.235-0.299,0.467-0.6,0.68-0.917c0.055-0.083,0.101-0.171,0.154-0.254c0.211-0.329,0.418-0.662,0.603-1.007
		c0.032-0.06,0.057-0.123,0.088-0.184c0.194-0.374,0.378-0.753,0.541-1.145c0.017-0.04,0.028-0.081,0.044-0.121
		c0.167-0.411,0.32-0.829,0.45-1.258c0.014-0.046,0.022-0.094,0.036-0.14c0.123-0.419,0.235-0.844,0.321-1.278
		c0.024-0.121,0.035-0.245,0.056-0.367c0.063-0.36,0.125-0.72,0.162-1.088c0.05-0.496,0.076-0.995,0.076-1.497
		c0-0.503-0.026-1.002-0.076-1.497c-0.037-0.371-0.1-0.734-0.164-1.097c-0.021-0.119-0.031-0.24-0.055-0.358
		c-0.087-0.437-0.199-0.864-0.323-1.286c-0.013-0.044-0.02-0.088-0.034-0.132c-0.131-0.432-0.286-0.852-0.454-1.267
		c-0.015-0.036-0.025-0.075-0.041-0.111c-0.164-0.394-0.349-0.776-0.544-1.152c-0.03-0.058-0.054-0.119-0.085-0.176
		c-0.187-0.348-0.394-0.682-0.606-1.013c-0.053-0.082-0.097-0.168-0.151-0.249c-0.213-0.317-0.445-0.62-0.681-0.919
		c-0.067-0.086-0.126-0.177-0.195-0.261c-0.312-0.379-0.641-0.744-0.988-1.091l-44.998-44.998c-5.857-5.858-15.355-5.858-21.213,0
		c-5.858,5.858-5.858,15.355,0,21.213l19.393,19.394H15c-8.284,0-15,6.716-15,15s6.716,15,15,15h173.785L169.392,199.395z"/>
	<path id="XMLID_11_" d="M207.301,42.3c-40.945,0-79.04,20.312-101.903,54.333c-4.621,6.876-2.793,16.196,4.083,20.816
		c6.876,4.621,16.196,2.793,20.816-4.083C147.578,87.652,176.365,72.3,207.301,72.3c51.116,0,92.701,41.586,92.701,92.701
		s-41.586,92.701-92.701,92.701c-30.844,0-59.585-15.283-76.879-40.882c-4.638-6.864-13.962-8.67-20.827-4.032
		c-6.864,4.638-8.67,13.962-4.032,20.827c22.882,33.868,60.915,54.087,101.738,54.087c67.658,0,122.701-55.044,122.701-122.701
		S274.958,42.3,207.301,42.3z"/>
</g>
<g>
</g>
<g>
</g>
<g>
</g>
<g>
</g>
<g>
</g>
<g>
</g>
<g>
</g>
<g>
</g>
<g>
</g>
<g>
</g>
<g>
</g>
<g>
</g>
<g>
</g>
<g>
</g>
<g>
</g>
</svg>
