<?xml version="1.0" encoding="iso-8859-1"?>
<!-- Generator: Adobe Illustrator 18.0.0, SVG Export Plug-In . SVG Version: 6.00 Build 0)  -->
<!DOCTYPE svg PUBLIC "-//W3C//DTD SVG 1.1//EN" "http://www.w3.org/Graphics/SVG/1.1/DTD/svg11.dtd">
<svg version="1.1" id="Capa_1" xmlns="http://www.w3.org/2000/svg" xmlns:xlink="http://www.w3.org/1999/xlink" x="0px" y="0px"
	 viewBox="0 0 512 512" style="enable-background:new 0 0 512 512;" xml:space="preserve">
<g>
	<circle style="fill:#F69348;" cx="256" cy="328.001" r="119.944"/>
	<path style="fill:#FFFFFF;" d="M256,176c-83.813,0-152,68.188-152,152s68.187,152,152,152s152-68.188,152-152S339.813,176,256,176z
		 M256,447.945c-66.243,0-119.944-53.701-119.944-119.944S189.757,208.057,256,208.057s119.944,53.701,119.944,119.944
		S322.243,447.945,256,447.945z"/>
	<g>
		<g>
			<path style="fill:#FFFFFF;" d="M297.713,392.001c-0.72,0-1.434-0.171-2.084-0.513l-39.63-20.617l-39.63,20.617
				c-1.512,0.792-3.353,0.66-4.739-0.341c-1.387-0.994-2.076-2.679-1.778-4.355l7.56-43.672l-32.055-30.918
				c-1.223-1.18-1.661-2.958-1.136-4.572c0.525-1.615,1.935-2.802,3.635-3.035l44.3-6.373l19.803-39.736
				c0.76-1.522,2.326-2.484,4.042-2.484l0,0c1.7,0,3.274,0.962,4.027,2.484l19.811,39.736l44.307,6.373
				c1.693,0.233,3.103,1.421,3.635,3.035c0.533,1.614,0.086,3.393-1.144,4.572l-32.047,30.918l7.559,43.672
				c0.29,1.676-0.399,3.362-1.786,4.355C299.577,391.713,298.645,392.001,297.713,392.001z"/>
		</g>
	</g>
	<path style="fill:#003B54;" d="M325.434,157.646l95.539-132.289c3.516-4.871,4.008-11.295,1.273-16.646
		C419.512,3.363,414.008,0,408,0h-96c-5.137,0-9.965,2.465-12.973,6.629L256,66.206L212.973,6.63C209.965,2.466,205.137,0,200,0h-96
		c-6.008,0-11.512,3.363-14.246,8.711c-2.734,5.352-2.242,11.779,1.273,16.65l95.535,132.287C119.434,185.112,72,251.104,72,328
		c0,101.457,82.543,184,184,184s184-82.543,184-184C440,251.104,392.565,185.109,325.434,157.646z M320.18,32h56.527
		l-72.709,100.672l-28.262-39.132L320.18,32z M191.82,32l80.887,112H216.18L135.293,32H191.82z M256,480
		c-83.813,0-152-68.188-152-152s68.187-152,152-152s152,68.188,152,152S339.813,480,256,480z"/>
	<polygon style="fill:#6EBF5D;" points="135.293,32 216.18,144 272.707,144 191.82,32 	"/>
	<g>
		<polygon style="fill:#FFFFFF;" points="320.18,32 275.736,93.539 303.998,132.672 376.707,32 		"/>
	</g>
</g>
<g>
</g>
<g>
</g>
<g>
</g>
<g>
</g>
<g>
</g>
<g>
</g>
<g>
</g>
<g>
</g>
<g>
</g>
<g>
</g>
<g>
</g>
<g>
</g>
<g>
</g>
<g>
</g>
<g>
</g>
</svg>
