<svg fill="none" height="16" viewBox="0 0 16 16" width="16" xmlns="http://www.w3.org/2000/svg" xmlns:xlink="http://www.w3.org/1999/xlink"><linearGradient id="a" gradientUnits="userSpaceOnUse" x1="8" x2="8" y1="3" y2="12.3334"><stop offset="0" stop-color="#4484f7"/><stop offset="1" stop-color="#b75ef7"/></linearGradient><path d="m8.00119 3c-3.313 0-6.0009 1.93987-6.0009 4.33398 0 1.02724.49383 1.96904 1.31895 2.71292-.18128.4855-.46049.6813-.77303.898-.23129.1605-.67094.4105-.51258.9002.10627.3209.43548.5146.79387.4855 1.20226-.0959 2.31701-.4001 3.27132-.8856.59801.1438 1.23768.223 1.90028.223 3.3151 0 6.0009-1.93783 6.0009-4.33402.0021-2.39411-2.6837-4.33398-5.99881-4.33398zm0 7.6678c-.67719 0-1.36271-.0917-2.02739-.2917-.67302.3959-1.63983.9585-2.80667 1.1252.66677-.5001 1.18351-1.2836 1.27519-1.84197-.79387-.54175-1.44188-1.35229-1.44188-2.32535 0-1.4773 1.79819-3.33383 5.00075-3.33383 3.20251 0 5.00071 1.85653 5.00071 3.33383 0 1.47939-1.7982 3.33382-5.00071 3.33382zm-1.33354-3.33382c0 .55217-.44798 1.00015-1.00014 1.00015-.55217 0-1.00015-.44798-1.00015-1.00015s.44798-1.00015 1.00015-1.00015c.55216 0 1.00014.44798 1.00014 1.00015zm2.33369 0c0 .55217-.44799 1.00015-1.00015 1.00015-.55217 0-1.00015-.44798-1.00015-1.00015s.44798-1.00015 1.00015-1.00015c.55216 0 1.00015.44798 1.00015 1.00015zm2.33366 0c0 .55217-.448 1.00015-1.0001 1.00015-.5522 0-1.00018-.44798-1.00018-1.00015s.44798-1.00015 1.00018-1.00015c.5521 0 1.0001.44798 1.0001 1.00015z" fill="url(#a)"/></svg>