<svg enable-background="new 0 0 64 64" fill="none" height="16" viewBox="0 0 64 64" width="16" xmlns="http://www.w3.org/2000/svg"><g fill="#42a5f5"><path d="m55.8 10c-.9-4.6-5-8-9.8-8s-8.9 3.4-9.8 8h-36.2v4h36.2c.9 4.6 5 8 9.8 8s8.9-3.4 9.8-8h8.2v-4zm-9.8 8c-3.3 0-6-2.7-6-6s2.7-6 6-6 6 2.7 6 6-2.7 6-6 6z"/><path d="m17 22c-4.8 0-8.9 3.4-9.8 8h-7.2v4h7.2c.9 4.6 5 8 9.8 8s8.9-3.4 9.8-8h37.2v-4h-37.2c-.9-4.6-5-8-9.8-8zm0 16c-3.3 0-6-2.7-6-6s2.7-6 6-6 6 2.7 6 6-2.7 6-6 6z"/><path d="m39 42c-4.8 0-8.9 3.4-9.8 8h-29.2v4h29.2c.9 4.6 5 8 9.8 8s8.9-3.4 9.8-8h15.2v-4h-15.2c-.9-4.6-5-8-9.8-8zm0 16c-3.3 0-6-2.7-6-6s2.7-6 6-6 6 2.7 6 6-2.7 6-6 6z"/></g></svg>