<svg fill="none" height="18" viewBox="0 0 18 18" width="18" xmlns="http://www.w3.org/2000/svg" xmlns:xlink="http://www.w3.org/1999/xlink"><mask id="a" height="12" maskUnits="userSpaceOnUse" width="12" x="3" y="3"><path d="m3.125 3.625h11.875v10.7517h-11.875z" fill="#fff"/></mask><mask id="b" height="5" maskUnits="userSpaceOnUse" width="4" x="9" y="11"><path d="m0 0h2.56538v2.56538h-2.56538z" fill="#fff" transform="matrix(-.707107 .707107 .707107 .707107 10.8765 11.8091)"/></mask><mask id="c" height="5" maskUnits="userSpaceOnUse" width="5" x="3" y="9"><path d="m7.24854 11.8091h2.56538v2.56539h-2.56538z" fill="#fff" transform="matrix(-.70710678 .70710678 -.70710678 -.70710678 20.724326 15.033903)"/></mask><mask id="d" height="5" maskUnits="userSpaceOnUse" width="5" x="5" y="11"><path d="m0 0h2.56538v2.56538h-2.56538z" fill="#fff" transform="matrix(-.707107 .707107 .707107 .707107 7.24854 11.8091)"/></mask><mask id="e" height="4" maskUnits="userSpaceOnUse" width="4" x="7" y="6"><path d="m0 0h2.56538v2.56538h-2.56538z" fill="#fff" transform="matrix(.707107 -.707107 -.707107 -.707107 9.0625 9.99512)"/></mask><mask id="f" height="5" maskUnits="userSpaceOnUse" width="5" x="10" y="9"><path d="m10.8765 11.8091h2.56538v2.56539h-2.56538z" fill="#fff" transform="matrix(.70710678 -.70710678 .70710678 .70710678 -5.164642 11.149652)"/></mask><rect height="16" rx="8" stroke="#000" stroke-width=".5" width="16" x="1" y="1"/><g mask="url(#a)"><g mask="url(#b)"><path clip-rule="evenodd" d="m12.6905 13.6232c-1.0018 1.0018-2.6261 1.0018-3.62797 0-1.00185-1.0019-1.00185-2.6262 0-3.62805 1.00187-1.00184 2.62617-1.00184 3.62797 0 1.0019 1.00185 1.0019 2.62615 0 3.62805z" fill="#000" fill-rule="evenodd"/></g><g mask="url(#c)"><path clip-rule="evenodd" d="m5.43452 9.99514c-1.00184 1.00186-1.00184 2.62616 0 3.62796 1.00185 1.0019 2.62616 1.0019 3.62801 0 1.00187-1.0018 1.00187-2.6261 0-3.62796-1.00185-1.00184-2.62616-1.00184-3.62801 0z" fill="#000" fill-rule="evenodd"/></g><g mask="url(#d)"><path clip-rule="evenodd" d="m9.06254 13.6232c-1.00185 1.0018-2.62616 1.0018-3.62801 0-1.00184-1.0019-1.00184-2.6262 0-3.62805 1.00185-1.00184 2.62616-1.00184 3.62801 0 1.00186 1.00185 1.00186 2.62615 0 3.62805z" fill="#000" fill-rule="evenodd"/></g><g mask="url(#e)"><path clip-rule="evenodd" d="m7.2485 8.18111c1.00184-1.00185 2.62616-1.00185 3.628 0 1.0018 1.00184 1.0018 2.62619 0 3.62799-1.00184 1.0019-2.62616 1.0019-3.628 0-1.00184-1.0018-1.00184-2.62615 0-3.62799z" fill="#000" fill-rule="evenodd"/></g><path d="m10.8765 11.8091h2.56538v2.56539h-2.56538z" fill="#000" transform="matrix(-.70710678 .70710678 -.70710678 -.70710678 26.917642 12.468548)"/><path d="m12.6905 9.99512h2.56538v2.56538h-2.56538z" fill="#000" transform="matrix(-.70710678 .70710678 -.70710678 -.70710678 28.731656 8.089199)"/><path d="m9.0625 9.99512h2.56538v2.56538h-2.56538z" fill="#000" transform="matrix(-.70710678 .70710678 -.70710678 -.70710678 22.538272 10.654582)"/><g mask="url(#f)"><path clip-rule="evenodd" d="m12.6905 13.6231c1.0019-1.0018 1.0019-2.6261 0-3.62796-1.0018-1.00184-2.6261-1.00184-3.62796 0-1.00185 1.00186-1.00185 2.62616 0 3.62796 1.00186 1.0019 2.62616 1.0019 3.62796 0z" fill="#000" fill-rule="evenodd"/></g><g fill="#000"><path clip-rule="evenodd" d="m7.27487 6.52498c.81098 0 1.46842-.64919 1.46842-1.44999 0-.80081-.65744-1.44999-1.46842-1.44999s-1.46841.64918-1.46841 1.44999c0 .8008.65743 1.44999 1.46841 1.44999z" fill-rule="evenodd"/><path clip-rule="evenodd" d="m4.59341 8.9206c.81099 0 1.46842-.64918 1.46842-1.44998 0-.80081-.65743-1.44999-1.46842-1.44999-.81098 0-1.46841.64918-1.46841 1.44999 0 .8008.65743 1.44998 1.46841 1.44998z" fill-rule="evenodd"/><path clip-rule="evenodd" d="m10.8501 6.52498c.811 0 1.4684-.64919 1.4684-1.44999 0-.80081-.6574-1.44999-1.4684-1.44999s-1.46839.64918-1.46839 1.44999c0 .8008.65739 1.44999 1.46839 1.44999z" fill-rule="evenodd"/><path clip-rule="evenodd" d="m13.5316 8.9206c.811 0 1.4684-.64918 1.4684-1.44998 0-.80081-.6574-1.44999-1.4684-1.44999s-1.4684.64918-1.4684 1.44999c0 .8008.6574 1.44998 1.4684 1.44998z" fill-rule="evenodd"/></g></g></svg>