<svg width="18" height="18" viewBox="0 0 18 18" fill="none" xmlns="http://www.w3.org/2000/svg">
<rect x="1" y="1" width="16" height="16" rx="8" stroke="black" stroke-width="0.5"/>
<mask id="mask0" mask-type="alpha" maskUnits="userSpaceOnUse" x="3" y="3" width="12" height="12">
<rect x="3.125" y="3.625" width="11.875" height="10.7517" fill="white"/>
</mask>
<g mask="url(#mask0)">
<mask id="mask1" mask-type="alpha" maskUnits="userSpaceOnUse" x="9" y="11" width="4" height="5">
<rect width="2.56538" height="2.56538" transform="matrix(-0.707107 0.707107 0.707107 0.707107 10.8765 11.8091)" fill="white"/>
</mask>
<g mask="url(#mask1)">
<path fill-rule="evenodd" clip-rule="evenodd" d="M12.6905 13.6232C11.6887 14.625 10.0644 14.625 9.06253 13.6232C8.06068 12.6213 8.06068 10.997 9.06253 9.99515C10.0644 8.99331 11.6887 8.99331 12.6905 9.99515C13.6924 10.997 13.6924 12.6213 12.6905 13.6232Z" fill="black"/>
</g>
<mask id="mask2" mask-type="alpha" maskUnits="userSpaceOnUse" x="3" y="9" width="5" height="5">
<rect x="7.24854" y="11.8091" width="2.56538" height="2.56539" transform="rotate(135 7.24854 11.8091)" fill="white"/>
</mask>
<g mask="url(#mask2)">
<path fill-rule="evenodd" clip-rule="evenodd" d="M5.43452 9.99514C4.43268 10.997 4.43268 12.6213 5.43452 13.6231C6.43637 14.625 8.06068 14.625 9.06253 13.6231C10.0644 12.6213 10.0644 10.997 9.06253 9.99514C8.06068 8.9933 6.43637 8.9933 5.43452 9.99514Z" fill="black"/>
</g>
<mask id="mask3" mask-type="alpha" maskUnits="userSpaceOnUse" x="5" y="11" width="5" height="5">
<rect width="2.56538" height="2.56538" transform="matrix(-0.707107 0.707107 0.707107 0.707107 7.24854 11.8091)" fill="white"/>
</mask>
<g mask="url(#mask3)">
<path fill-rule="evenodd" clip-rule="evenodd" d="M9.06254 13.6232C8.06069 14.625 6.43638 14.625 5.43453 13.6232C4.43269 12.6213 4.43269 10.997 5.43453 9.99515C6.43638 8.99331 8.06069 8.99331 9.06254 9.99515C10.0644 10.997 10.0644 12.6213 9.06254 13.6232Z" fill="black"/>
</g>
<mask id="mask4" mask-type="alpha" maskUnits="userSpaceOnUse" x="7" y="6" width="4" height="4">
<rect width="2.56538" height="2.56538" transform="matrix(0.707107 -0.707107 -0.707107 -0.707107 9.0625 9.99512)" fill="white"/>
</mask>
<g mask="url(#mask4)">
<path fill-rule="evenodd" clip-rule="evenodd" d="M7.2485 8.18111C8.25034 7.17926 9.87466 7.17926 10.8765 8.18111C11.8783 9.18295 11.8783 10.8073 10.8765 11.8091C9.87466 12.811 8.25034 12.811 7.2485 11.8091C6.24666 10.8073 6.24666 9.18295 7.2485 8.18111Z" fill="black"/>
</g>
<rect x="10.8765" y="11.8091" width="2.56538" height="2.56539" transform="rotate(135 10.8765 11.8091)" fill="black"/>
<rect x="12.6905" y="9.99512" width="2.56538" height="2.56538" transform="rotate(135 12.6905 9.99512)" fill="black"/>
<rect x="9.0625" y="9.99512" width="2.56538" height="2.56538" transform="rotate(135 9.0625 9.99512)" fill="black"/>
<mask id="mask5" mask-type="alpha" maskUnits="userSpaceOnUse" x="10" y="9" width="5" height="5">
<rect x="10.8765" y="11.8091" width="2.56538" height="2.56539" transform="rotate(-45 10.8765 11.8091)" fill="white"/>
</mask>
<g mask="url(#mask5)">
<path fill-rule="evenodd" clip-rule="evenodd" d="M12.6905 13.6231C13.6924 12.6213 13.6924 10.997 12.6905 9.99514C11.6887 8.9933 10.0644 8.9933 9.06254 9.99514C8.06069 10.997 8.06069 12.6213 9.06254 13.6231C10.0644 14.625 11.6887 14.625 12.6905 13.6231Z" fill="black"/>
</g>
<path fill-rule="evenodd" clip-rule="evenodd" d="M7.27487 6.52498C8.08585 6.52498 8.74329 5.87579 8.74329 5.07499C8.74329 4.27418 8.08585 3.625 7.27487 3.625C6.46389 3.625 5.80646 4.27418 5.80646 5.07499C5.80646 5.87579 6.46389 6.52498 7.27487 6.52498Z" fill="black"/>
<path fill-rule="evenodd" clip-rule="evenodd" d="M4.59341 8.9206C5.4044 8.9206 6.06183 8.27142 6.06183 7.47062C6.06183 6.66981 5.4044 6.02063 4.59341 6.02063C3.78243 6.02063 3.125 6.66981 3.125 7.47062C3.125 8.27142 3.78243 8.9206 4.59341 8.9206Z" fill="black"/>
<path fill-rule="evenodd" clip-rule="evenodd" d="M10.8501 6.52498C11.6611 6.52498 12.3185 5.87579 12.3185 5.07499C12.3185 4.27418 11.6611 3.625 10.8501 3.625C10.0391 3.625 9.38171 4.27418 9.38171 5.07499C9.38171 5.87579 10.0391 6.52498 10.8501 6.52498Z" fill="black"/>
<path fill-rule="evenodd" clip-rule="evenodd" d="M13.5316 8.9206C14.3426 8.9206 15 8.27142 15 7.47062C15 6.66981 14.3426 6.02063 13.5316 6.02063C12.7206 6.02063 12.0632 6.66981 12.0632 7.47062C12.0632 8.27142 12.7206 8.9206 13.5316 8.9206Z" fill="black"/>
</g>
</svg>
