<svg fill="none" height="16" viewBox="0 0 16 16" width="16" xmlns="http://www.w3.org/2000/svg" xmlns:xlink="http://www.w3.org/1999/xlink"><linearGradient id="a" gradientUnits="userSpaceOnUse" x1="8" x2="8" y1="3" y2="12.75"><stop offset="0" stop-color="#7178f5"/><stop offset="1" stop-color="#926ef7"/></linearGradient><path d="m11.6 4.21875v4.875h-7.2v-4.875zm.3-1.21875h-7.8c-.49687 0-.9.40942-.9.91406v5.48438c0 .50464.40313.91406.9.91406h7.8c.4969 0 .9-.40942.9-.91406v-5.48438c0-.50464-.4031-.91406-.9-.91406zm1.875 7.9219h-4.47187c-.05625 0-.10313.04-.11063.0971-.045.2894-.2925.5122-.5925.5122h-1.2c-.3 0-.5475-.2228-.5925-.5122-.00937-.0552-.05625-.0971-.11062-.0971h-4.47188c-.12375 0-.225.1028-.225.2285v.6855c0 .5047.40313.9141.9.9141h10.2c.4969 0 .9-.4094.9-.9141v-.6855c0-.1257-.1012-.2285-.225-.2285z" fill="url(#a)"/></svg>