<svg fill="none" height="16" viewBox="0 0 16 16" width="16" xmlns="http://www.w3.org/2000/svg" xmlns:xlink="http://www.w3.org/1999/xlink"><linearGradient id="a" gradientUnits="userSpaceOnUse" x1="8" x2="8" y1="2" y2="14"><stop offset="0" stop-color="#6b78f5"/><stop offset="1" stop-color="#956bf7"/></linearGradient><path d="m8 2c-3.31372 0-6 2.68628-6 6 0 3.3137 2.68628 6 6 6 3.3137 0 6-2.6863 6-6 0-3.31372-2.6863-6-6-6zm0 1.16129c2.6723 0 4.8387 2.16636 4.8387 4.83871 0 .89473-.2431 1.73252-.6665 2.4515-.1711-.6156-.6209-1.3115-1.5467-1.58165.3069-.48803.4713-1.05338.4713-1.64404 0-1.71022-1.38363-3.09678-3.0968-3.09678-1.71022 0-3.09677 1.38363-3.09677 3.09678 0 .59066.16434 1.15604.47124 1.64404-.92659.27037-1.37603.96564-1.54689 1.58135-.42324-.71892-.66629-1.55662-.66629-2.4512 0-2.67235 2.16636-4.83871 4.83871-4.83871zm1.93548 4.06452c0 1.06894-.86654 1.93548-1.93548 1.93548s-1.93548-.86654-1.93548-1.93548c0-1.06895.86654-1.93549 1.93548-1.93549s1.93548.86654 1.93548 1.93549zm-5.03225 4.49199v-.6716c0-.4938.32733-.9277.80216-1.06339l.59216-.16919c.50105.33108 1.08805.50898 1.70245.50898s1.2014-.1779 1.70248-.509l.59212.16918c.4748.13572.8022.56962.8022 1.06342v.6716c-.8392.6997-1.91874 1.1209-3.0968 1.1209s-2.25762-.4212-3.09677-1.1209z" fill="url(#a)"/></svg>