<svg fill="none" height="16" viewBox="0 0 16 16" width="16" xmlns="http://www.w3.org/2000/svg" xmlns:xlink="http://www.w3.org/1999/xlink"><linearGradient id="a" gradientUnits="userSpaceOnUse" x1="8.5" x2="8.5" y1="2" y2="14"><stop offset="0" stop-color="#4384f7"/><stop offset="1" stop-color="#b75ff8"/></linearGradient><path d="m10.75 7.8125v.65625c0 .15469-.1266.28125-.2812.28125h-3.93755c-.15469 0-.28125-.12656-.28125-.28125v-.65625c0-.15469.12656-.28125.28125-.28125h3.93755c.1546 0 .2812.12656.2812.28125zm-.2812 1.6875h-3.93755c-.15469 0-.28125.12656-.28125.28125v.65625c0 .1547.12656.2813.28125.2813h3.93755c.1546 0 .2812-.1266.2812-.2813v-.65625c0-.15469-.1266-.28125-.2812-.28125zm2.5312-4.40859v7.78359c0 .6211-.5039 1.125-1.125 1.125h-6.75c-.62109 0-1.125-.5039-1.125-1.125v-9.75c0-.62109.50391-1.125 1.125-1.125h4.78359c.29771 0 .58361.11953.79451.33047l1.9664 1.96641c.211.20859.3305.49687.3305.79453zm-3-1.875v1.78359h1.7836zm1.875 9.65859v-6.75h-2.4375c-.31172 0-.5625-.25078-.5625-.5625v-2.4375h-3.75v9.75z" fill="url(#a)"/></svg>