<?xml version="1.0" encoding="utf-8"?>
<!-- Svg Vector Icons : http://www.onlinewebfonts.com/icon -->
<!DOCTYPE svg PUBLIC "-//W3C//DTD SVG 1.1//EN" "http://www.w3.org/Graphics/SVG/1.1/DTD/svg11.dtd">
<svg width="18" height="18" version="1.1" xmlns="http://www.w3.org/2000/svg" xmlns:xlink="http://www.w3.org/1999/xlink" x="0px" y="0px" viewBox="0 0 1000 1000" enable-background="new 0 0 1000 1000" xml:space="preserve">
<metadata> Svg Vector Icons : http://www.onlinewebfonts.com/icon </metadata>
<g><path d="M438.8,770.4L242.3,543.3l56-56l140.4,109.8l262.9-232.3l56,56L438.8,770.4z M806,132.5c0.1,0.1,0.2,0.2,0.2,0.2v734.6c-0.1,0.1-0.2,0.2-0.2,0.2H194c-0.1-0.1-0.2-0.2-0.2-0.2V132.7c0.1-0.1,0.2-0.2,0.2-0.2H71.3v735c0,67.4,55.1,122.5,122.5,122.5h612.5c67.4,0,122.5-55.1,122.5-122.5v-735H806z M622.5,132.5V71.3c0-33.8-27.4-61.3-61.3-61.3H438.8c-33.8,0-61.3,27.4-61.3,61.3v61.3H255V255h490V132.5H622.5z M561.3,132.5H438.8V71.3h122.5V132.5z"/></g>
</svg>