<svg fill="none" height="16" viewBox="0 0 16 16" width="16" xmlns="http://www.w3.org/2000/svg" xmlns:xlink="http://www.w3.org/1999/xlink"><linearGradient id="a" gradientUnits="userSpaceOnUse" x1="8" x2="8" y1="2" y2="14"><stop offset="0" stop-color="#587ef7"/><stop offset="1" stop-color="#a764f7"/></linearGradient><path d="m8.54112 6.96866.51701 1.54567-1.60193.53576-.51701-1.54567zm1.10903 6.52824c-4.12537 1.2376-5.90945.2786-7.14706-3.84675-1.23761-4.12537-.2786-5.90945 3.84676-7.14706 4.12535-1.23761 5.90945-.2786 7.14705 3.84676 1.2376 4.12535.2786 5.90945-3.84675 7.14705zm2.15915-5.25581c-.1045-.32681-.4608-.49826-.7876-.39378l-.7769.25984-.51697-1.54567.77687-.25984c.3268-.10448.4982-.46076.3938-.78757-.1045-.32682-.4608-.49826-.7876-.39379l-.77685.25985-.26788-.80632c-.10448-.32682-.46076-.49826-.78757-.39379-.32682.10447-.49826.46076-.39379.78757l.26788.80632-1.60192.53844-.26789-.80632c-.10447-.32681-.46075-.49826-.78756-.39378-.32682.10447-.49826.46075-.39379.78757l.26788.80632-.77685.25984c-.32682.10447-.49826.46076-.39379.78757.08572.24913.32682.41254.57595.42325.11519.01607.20626-.02679.98848-.28663l.51701 1.54567-.77686.25984c-.32681.10448-.49826.46072-.39378.78762.08572.2491.32681.4125.57594.4232.11519.0161.20627-.0268.98848-.2866l.26788.8063c.09912.2893.42325.4983.78757.3938.32681-.1045.49826-.4608.39379-.7876l-.26789-.8063 1.60193-.53845.26788.80635c.09912.2893.42325.4982.78755.3938.3268-.1045.4983-.4608.3938-.7876l-.2679-.80634.7769-.25984c.3268-.11251.4982-.46879.3938-.79293z" fill="url(#a)"/></svg>