<?xml version="1.0" encoding="iso-8859-1"?>
<!-- Generator: Adobe Illustrator 19.0.0, SVG Export Plug-In . SVG Version: 6.00 Build 0)  -->
<svg version="1.1" id="Capa_1" xmlns="http://www.w3.org/2000/svg" xmlns:xlink="http://www.w3.org/1999/xlink" x="0px" y="0px"
	 viewBox="0 0 512 512" style="enable-background:new 0 0 512 512;" xml:space="preserve" width="16" height="16">
<path style="fill:#8B8892;" d="M376.5,120.5h-241c-8.285,0-15,6.717-15,15c0,8.284,6.715,15,15,15v211c-8.285,0-15,6.717-15,15
	c0,8.284,6.715,15,15,15h241c74.715,0,135.5-60.785,135.5-135.5S451.215,120.5,376.5,120.5z"/>
<path style="fill:#AEADB3;" d="M376.5,120.5h-241c-8.285,0-15,6.717-15,15c0,8.284,6.715,15,15,15v105.499H512
	C511.999,181.285,451.214,120.5,376.5,120.5z"/>
<path style="fill:#F2F2F2;" d="M271,256c0-74.715-60.785-135.5-135.5-135.5S0,181.285,0,256s60.785,135.5,135.5,135.5
	S271,330.715,271,256z"/>
<path style="fill:#D9D9D9;" d="M135.5,391.5c74.715,0,135.5-60.785,135.5-135.5H0C0,330.715,60.785,391.5,135.5,391.5z"/>
<g>
</g>
<g>
</g>
<g>
</g>
<g>
</g>
<g>
</g>
<g>
</g>
<g>
</g>
<g>
</g>
<g>
</g>
<g>
</g>
<g>
</g>
<g>
</g>
<g>
</g>
<g>
</g>
<g>
</g>
</svg>
