<svg width="16" height="16" viewBox="0 0 16 16" fill="none" xmlns="http://www.w3.org/2000/svg">
<path d="M15.8154 7.43419C14.2491 4.77636 11.3281 3 8 3C4.67056 3 1.75012 4.77761 0.184624 7.43419C0.0637488 7.6393 0 7.87304 0 8.11112C0 8.3492 0.0637488 8.58293 0.184624 8.78805C1.75087 11.4458 4.67195 13.2222 8 13.2222C11.3294 13.2222 14.2499 11.4446 15.8154 8.78802C15.9363 8.58291 16 8.34918 16 8.1111C16 7.87303 15.9363 7.63929 15.8154 7.43419V7.43419ZM8 11.8889C5.91217 11.8889 4.22223 10.1992 4.22223 8.1111C4.22223 6.02327 5.91184 4.33333 8 4.33333C10.0878 4.33333 11.7778 6.02294 11.7778 8.1111C11.7778 10.1989 10.0882 11.8889 8 11.8889ZM10.8889 8.1111C10.8889 9.7066 9.5955 11 8 11C6.4045 11 5.11112 9.7066 5.11112 8.1111C5.11112 7.61921 5.2342 7.15613 5.451 6.75074L5.45098 6.75163C5.45098 7.4086 5.98356 7.94116 6.64053 7.94116C7.2975 7.94116 7.83008 7.40858 7.83008 6.75163C7.83008 6.09466 7.2975 5.56208 6.64053 5.56208L6.63964 5.56211C7.04503 5.3453 7.50811 5.22222 8 5.22222C9.5955 5.22222 10.8889 6.51561 10.8889 8.1111Z" fill="black"/>
</svg>
