<svg fill="none" height="16" viewBox="0 0 16 16" width="16" xmlns="http://www.w3.org/2000/svg" xmlns:xlink="http://www.w3.org/1999/xlink"><linearGradient id="a" gradientUnits="userSpaceOnUse" x1="8" x2="8" y1="3" y2="13.6666"><stop offset="0" stop-color="#4783f7"/><stop offset="1" stop-color="#b560f8"/></linearGradient><path d="m7.97278 11.1663.67873.9697c-.21657.0204-.43397.0306-.6515.0307-2.49604 0-4.68685-1.3323-5.86154-3.32569-.09066-.15383-.13847-.32913-.13847-.50769s.04781-.35387.13847-.5077c.50048-.84929 1.18569-1.57865 2.0005-2.13619l1.1891 1.69873c-.10439.29558-.16139.61365-.16139.94517 0 1.557 1.25281 2.81837 2.8061 2.83297zm5.88872-2.32529c-.6597 1.11952-1.6405 2.03039-2.8161 2.61409l.0002.0003.864 1.2333c.1583.2263.1033.5379-.1229.6963l-.2732.1912c-.2262.1584-.5379.1034-.6962-.1229l-6.72687-9.47539c-.15834-.22625-.10334-.53791.12291-.69625l.27313-.19125c.22625-.15833.53791-.10333.69625.12292l1.06329 1.51285c.55983-.14752 1.14785-.22618 1.754-.22618 2.49599 0 4.68689 1.33227 5.86149 3.32564.0907.15383.1385.32913.1385.50769 0 .17855-.0478.35385-.1385.50768zm-3.0282-.50768c0-1.56613-1.26742-2.83334-2.83329-2.83334-.37373 0-.73034.07236-1.05686.20359l.40207.56371c.53893-.17023 1.14675-.1284 1.675.15437h-.00063c-.49271 0-.89208.39938-.89208.89208 0 .49221.39889.89209.89208.89209.49271 0 .89208-.39938.89208-.89209v-.00062c.38463.71854.33983 1.62321-.17187 2.31146v.0002l.4024.56382c.4306-.49694.6911-1.1454.6911-1.85527zm-3.37467 2.09847-1.6152-2.30743c-.10446 1.09139.6107 2.04903 1.6152 2.30743z" fill="url(#a)"/></svg>