<?xml version="1.0" encoding="iso-8859-1"?>
<!-- Generator: Adobe Illustrator 19.0.0, SVG Export Plug-In . SVG Version: 6.00 Build 0)  -->
<svg version="1.1" id="Layer_1" xmlns="http://www.w3.org/2000/svg" xmlns:xlink="http://www.w3.org/1999/xlink" x="0px" y="0px"
	 viewBox="0 0 494.4 494.4" style="enable-background:new 0 0 494.4 494.4;" xml:space="preserve" width="12px" height="12px">
<circle style="fill:#08446D;" cx="248.8" cy="404.4" r="51.2"/>
<path style="fill:#00233F;" d="M284.8,368.4c20,20,20,52,0,72s-52,20-72,0"/>
<path style="fill:#1789AD;" d="M400.8,254.8c-6.4,0-12.8-2.4-17.6-7.2c-36-36.8-84.8-56.8-136-56.8s-100,20-136,56
	c-9.6,9.6-25.6,9.6-35.2,0s-9.6-25.6,0-35.2c45.6-45.6,107.2-71.2,172-71.2l0,0c64.8,0,125.6,25.6,172,71.2c9.6,9.6,9.6,25.6,0,35.2
	C414.4,251.6,407.2,254.8,400.8,254.8z"/>
<path style="fill:#0D6E8C;" d="M247.2,166.8c-64.8,0-125.6,25.6-172,71.2c-1.6,1.6-2.4,3.2-4,4.8c0.8,1.6,2.4,3.2,4,4.8
	c9.6,9.6,25.6,9.6,35.2,0c36.8-36.8,84.8-56.8,136-56.8s100,20,136,56.8c4.8,4.8,11.2,7.2,17.6,7.2s12.8-2.4,17.6-7.2
	c1.6-1.6,2.4-3.2,4-4.8c-0.8-1.6-2.4-3.2-4-4.8C372.8,191.6,312,166.8,247.2,166.8z"/>
<path style="fill:#23C181;" d="M469.6,180.4c-6.4,0-12.8-2.4-17.6-7.2c-55.2-54.4-127.2-84.8-204.8-84.8S97.6,118.8,42.4,173.2
	c-9.6,9.6-25.6,9.6-35.2,0s-9.6-25.6,0-35.2c64-64,149.6-99.2,240-99.2l0,0c90.4,0,176,35.2,240,99.2c9.6,9.6,9.6,25.6,0,35.2
	C482.4,178,476,180.4,469.6,180.4z"/>
<path style="fill:#0CAA7D;" d="M247.2,65.2c-90.4,0-176,35.2-240,99.2c-1.6,1.6-2.4,2.4-3.2,4c0.8,1.6,2.4,3.2,3.2,4
	c9.6,9.6,25.6,9.6,35.2,0c55.2-53.6,127.2-84,204.8-84s149.6,30.4,204.8,84.8c4.8,4.8,11.2,7.2,17.6,7.2s12.8-2.4,17.6-7.2
	c1.6-1.6,2.4-2.4,3.2-4c-0.8-1.6-2.4-3.2-3.2-4C423.2,100.4,337.6,65.2,247.2,65.2z"/>
<path style="fill:#E57520;" d="M339.2,330.8c-6.4,0-12.8-2.4-17.6-7.2c-20-20-46.4-30.4-74.4-30.4s-54.4,11.2-74.4,30.4
	c-9.6,9.6-25.6,9.6-35.2,0s-9.6-25.6,0-35.2c29.6-29.6,68-45.6,109.6-45.6l0,0c41.6,0,80,16,109.6,45.6c9.6,9.6,9.6,25.6,0,35.2
	C352,328.4,345.6,330.8,339.2,330.8z"/>
<path style="fill:#DB5207;" d="M247.2,270.8c-41.6,0-80,16-109.6,45.6c-0.8,0.8-2.4,2.4-3.2,4c0.8,1.6,1.6,2.4,3.2,4
	c9.6,9.6,25.6,9.6,35.2,0c20-20,46.4-30.4,74.4-30.4s54.4,11.2,74.4,30.4c4.8,4.8,11.2,7.2,17.6,7.2s12.8-2.4,17.6-7.2
	c0.8-0.8,2.4-2.4,3.2-4c-0.8-1.6-1.6-2.4-3.2-4C327.2,286.8,288.8,270.8,247.2,270.8z"/>
<g>
</g>
<g>
</g>
<g>
</g>
<g>
</g>
<g>
</g>
<g>
</g>
<g>
</g>
<g>
</g>
<g>
</g>
<g>
</g>
<g>
</g>
<g>
</g>
<g>
</g>
<g>
</g>
<g>
</g>
</svg>
