<?xml version="1.0" encoding="iso-8859-1"?>
<!-- Generator: Adobe Illustrator 19.0.0, SVG Export Plug-In . SVG Version: 6.00 Build 0)  -->
<svg version="1.1" id="Layer_1" xmlns="http://www.w3.org/2000/svg" xmlns:xlink="http://www.w3.org/1999/xlink" x="0px" y="0px"
	 width="16" height="16" viewBox="0 0 512 512" style="enable-background:new 0 0 512 512;" xml:space="preserve">
<path style="fill:#E4EAF8;" d="M256,512c70.693,0,128-57.307,128-128s-57.307-128-128-128s-128-57.307-128-128S185.307,0,256,0
	c141.385,0,256,114.615,256,256S397.385,512,256,512z"/>
<g>
	<path style="fill:#5B5D6E;" d="M256,0c-70.693,0-128,57.307-128,128s57.307,128,128,128s128,57.307,128,128s-57.307,128-128,128
		C114.616,512,0,397.385,0,256S114.616,0,256,0z"/>
	<circle style="fill:#5B5D6E;" cx="256" cy="128" r="33.185"/>
</g>
<path style="fill:#464655;" d="M382.028,405.683c-10.244,1.249-20.633,2.021-31.213,2.021c-141.384,0-256-114.616-256-256
	c0-40.722,9.553-79.196,26.469-113.378C48.499,83.468,0,164.055,0,256c0,141.384,114.616,256,256,256
	C319.285,512,371.708,466.026,382.028,405.683z"/>
<circle style="fill:#E4EAF8;" cx="256" cy="384" r="33.185"/>
<g>
	<path style="fill:#D5DCED;" d="M382.028,405.683C371.708,466.026,319.285,512,256,512c100.638,0,187.667-58.098,229.498-142.558
		c0.012-0.021,0.023-0.043,0.032-0.064C454.769,388.457,419.643,401.094,382.028,405.683z"/>
	<path style="fill:#D5DCED;" d="M224.424,374.297c-0.949,3.087-1.609,6.303-1.609,9.703c0,18.328,14.857,33.185,33.185,33.185
		c12.812,0,23.799-7.339,29.33-17.969C263.775,393.528,243.359,385.07,224.424,374.297z"/>
</g>
<g>
</g>
<g>
</g>
<g>
</g>
<g>
</g>
<g>
</g>
<g>
</g>
<g>
</g>
<g>
</g>
<g>
</g>
<g>
</g>
<g>
</g>
<g>
</g>
<g>
</g>
<g>
</g>
<g>
</g>
</svg>
