<svg fill="none" height="82" viewBox="0 0 90 82" width="90" xmlns="http://www.w3.org/2000/svg"><g fill="#000"><path d="m31.4493 22.3784c2.1783-.0183 4.3023-.6777 6.1044-1.8951 1.8021-1.2175 3.2016-2.9385 4.0219-4.9461.8203-2.0075 1.0248-4.2118.5877-6.3348-.4372-2.123-1.4964-4.06973-3.0441-5.59474-1.5477-1.525-3.5146-2.56-5.6527-2.974523-2.1382-.414518-4.3519-.190015-6.3619.645253-2.0101.83527-3.7265 2.24387-4.933 4.04823s-1.8489 3.92373-1.8464 6.09078c.007 1.4464.3002 2.8772.863 4.2108s1.3841 2.5438 2.417 3.5617c1.033 1.0178 2.2574 1.8232 3.6033 2.3703s2.7869.8251 4.2408.8182z"/><path d="m11.124 40.4883c6.1437 0 11.1241-4.9074 11.1241-10.9609 0-6.0536-4.9804-10.961-11.1241-10.961-6.1436 0-11.124 4.9074-11.124 10.961 0 6.0535 4.9804 10.9609 11.124 10.9609z"/><path d="m58.5504 22.3783c2.1777-.0208 4.3004-.6824 6.1008-1.9014 1.8003-1.2191 3.1977-2.9409 4.016-4.9487s1.0209-4.2116.5823-6.33372c-.4387-2.12213-1.4989-4.06767-3.0471-5.59136s-3.5151-2.55736-5.6529-2.970823c-2.1378-.413467-4.3507-.188208-6.3599.647423-2.0093.83564-3.725 2.24425-4.9309 4.04831s-1.8481 3.92285-1.8456 6.08937c.0069 1.4475.3006 2.8794.8643 4.2138.5636 1.3345 1.386 2.5453 2.4204 3.5633s2.2604 1.8232 3.6078 2.3695 2.7898.823 4.2448.8143z"/><path d="m78.8757 18.5664c-2.1745.0208-4.2941.6813-6.092 1.8983s-3.1936 2.936-4.0113 4.9406-1.0207 4.2051-.5837 6.3243 1.4946 4.0624 3.0397 5.5848c1.545 1.5224 3.5084 2.5559 5.6427 2.9703 2.1343.4145 4.3442.1913 6.3513-.6413s3.7216-2.2374 4.9276-4.0376c1.2061-1.8001 1.8497-3.9151 1.8498-6.0785-.0069-1.4463-.3002-2.8772-.863-4.2108s-1.3841-2.5438-2.4171-3.5616-2.2573-1.8233-3.6032-2.3703c-1.3458-.5471-2.7869-.8252-4.2408-.8182z"/><path d="m72.4984 48.6134-13.7493-13.7045c-1.8033-1.8002-3.9462-3.2287-6.3056-4.2033s-4.8889-1.4763-7.4436-1.4763c-2.5548 0-5.0843.5017-7.4437 1.4763s-4.5023 2.4031-6.3056 4.2033l-13.7493 13.7045c-3.5287 3.6538-5.4784 8.5373-5.4311 13.604.0472 5.0667 2.0876 9.9135 5.6839 13.5015 3.5963 3.5881 8.4623 5.6319 13.5553 5.6936 5.0929.0616 10.0075-1.8639 13.6905-5.3638 1.7964 1.8601 3.9481 3.3446 6.3288 4.3665 2.3808 1.0219 4.9427 1.5605 7.5355 1.5845 2.5928.0239 5.1642-.4674 7.5636-1.4452s4.5784-2.4223 6.4092-4.2489 3.2766-3.9985 4.2525-6.3883c.976-2.3898 1.4624-4.9494 1.4309-7.5287-.0316-2.5792-.5805-5.1263-1.6146-7.4917-1.0341-2.3655-2.5325-4.5018-4.4074-6.2835zm-35.7189 18.4661c0 .4792-.1914.9388-.532 1.2777-.3407.3389-.8027.5293-1.2845.5293h-4.2295c-.2379 0-.4735-.0469-.6931-.1378-.2197-.091-.419-.2243-.5866-.3923-.1677-.1679-.3002-.3673-.39-.5864-.0899-.2192-.1352-.4539-.1335-.6905v-8.2307c-.0017-.2367.0436-.4713.1335-.6905.0898-.2192.2223-.4184.39-.5864.1676-.168.3669-.3013.5866-.3923.2196-.091.4552-.1378.6931-.1378h4.2295c.4818 0 .9438.1904 1.2845.5293.3406.3389.532.7984.532 1.2777zm12.145 0c.0017.2366-.0437.4713-.1335.6905-.0898.2191-.2224.4185-.39.5864-.1676.168-.367.3013-.5867.3923-.2196.0909-.4552.1378-.6931.1378h-4.2427c-.2379 0-.4735-.0469-.6931-.1378-.2197-.091-.419-.2243-.5866-.3923-.1677-.1679-.3003-.3673-.3901-.5864-.0898-.2192-.1352-.4539-.1334-.6905v-23.5707c0-.4757.19-.932.5281-1.2684.3382-.3364.7969-.5255 1.2751-.5255h4.2427c.4782 0 .9369.1891 1.2751.5255.3381.3364.5282.7927.5282 1.2684zm12.1449 0c.0017.2366-.0436.4713-.1335.6905-.0898.2191-.2223.4185-.3899.5864-.1677.168-.367.3013-.5867.3923-.2196.0909-.4552.1378-.6931.1378h-4.2295c-.4818 0-.9438-.1904-1.2844-.5293-.3407-.3389-.532-.7985-.532-1.2777v-16.8965c0-.4792.1913-.9389.532-1.2778.3406-.3389.8026-.5292 1.2844-.5292h4.2295c.2379 0 .4735.0468.6931.1377.2197.091.419.2244.5867.3923.1676.168.3001.3673.3899.5864.0899.2192.1352.4539.1335.6906z"/></g></svg>