<svg width="31" height="29" viewBox="0 0 31 29" fill="none" xmlns="http://www.w3.org/2000/svg">
<path d="M10.7433 7.78079C11.4874 7.77456 12.213 7.54931 12.8286 7.13343C13.4442 6.71754 13.9222 6.12965 14.2024 5.44388C14.4827 4.7581 14.5525 4.00513 14.4032 3.27991C14.2539 2.5547 13.892 1.8897 13.3634 1.36876C12.8347 0.847821 12.1628 0.494268 11.4324 0.352669C10.702 0.21107 9.94581 0.28776 9.25918 0.573086C8.57255 0.858412 7.98621 1.33959 7.57408 1.95595C7.16195 2.57232 6.94249 3.29629 6.94336 4.03656C6.94574 4.53063 7.0459 5.0194 7.23815 5.47495C7.4304 5.93051 7.71096 6.34392 8.06381 6.6916C8.41667 7.03929 8.83493 7.31442 9.29468 7.5013C9.75442 7.68818 10.2467 7.78316 10.7433 7.78079V7.78079Z" fill="#B3B3B3"/>
<path d="M3.79995 13.9671C5.8986 13.9671 7.59989 12.2907 7.59989 10.2229C7.59989 8.15499 5.8986 6.47864 3.79995 6.47864C1.70129 6.47864 0 8.15499 0 10.2229C0 12.2907 1.70129 13.9671 3.79995 13.9671Z" fill="#B3B3B3"/>
<path d="M20.0008 7.78078C20.7447 7.77366 21.4698 7.54766 22.0848 7.13124C22.6998 6.71482 23.1771 6.12663 23.4566 5.44078C23.7362 4.75493 23.8054 4.00212 23.6555 3.2772C23.5057 2.55229 23.1435 1.8877 22.6147 1.36721C22.0858 0.846718 21.4139 0.49362 20.6837 0.352381C19.9534 0.211142 19.1975 0.28809 18.5111 0.573541C17.8247 0.858992 17.2387 1.34017 16.8267 1.95643C16.4148 2.5727 16.1954 3.29647 16.1963 4.03655C16.1987 4.531 16.299 5.02013 16.4915 5.47598C16.6841 5.93183 16.965 6.34544 17.3183 6.69319C17.6717 7.04093 18.0905 7.31599 18.5508 7.50261C19.011 7.68923 19.5038 7.78374 20.0008 7.78078Z" fill="#B3B3B3"/>
<path d="M26.9443 6.47862C26.2015 6.48573 25.4774 6.71136 24.8632 7.12708C24.2491 7.54281 23.7723 8.13003 23.493 8.81479C23.2137 9.49956 23.1443 10.2512 23.2936 10.9752C23.4429 11.6991 23.8042 12.3629 24.3319 12.8829C24.8597 13.4029 25.5304 13.756 26.2595 13.8976C26.9886 14.0391 27.7434 13.9629 28.4291 13.6785C29.1147 13.3941 29.7004 12.9142 30.1123 12.2993C30.5243 11.6843 30.7442 10.9618 30.7442 10.2228C30.7419 9.72878 30.6417 9.24001 30.4494 8.78446C30.2572 8.32891 29.9766 7.91549 29.6237 7.56781C29.2709 7.22012 28.8527 6.94499 28.3929 6.75811C27.9332 6.57123 27.4409 6.47625 26.9443 6.47862Z" fill="#B3B3B3"/>
<path d="M24.7655 16.7426L20.0687 12.0612C19.4527 11.4462 18.7208 10.9583 17.9148 10.6254C17.1088 10.2924 16.2447 10.1211 15.372 10.1211C14.4993 10.1211 13.6353 10.2924 12.8293 10.6254C12.0233 10.9583 11.2913 11.4462 10.6753 12.0612L5.97861 16.7426C4.77319 17.9907 4.10719 19.6589 4.12333 21.3897C4.13947 23.1205 4.83645 24.7761 6.06494 26.0018C7.29343 27.2275 8.95566 27.9256 10.6954 27.9467C12.4351 27.9678 14.1139 27.31 15.372 26.1144V26.1144C15.9857 26.7498 16.7207 27.2569 17.534 27.606C18.3472 27.9551 19.2224 28.1391 20.1081 28.1473C20.9938 28.1555 21.8721 27.9876 22.6918 27.6536C23.5114 27.3196 24.2558 26.8262 24.8812 26.2022C25.5066 25.5782 26.0004 24.8363 26.3338 24.02C26.6672 23.2036 26.8333 22.3293 26.8226 21.4482C26.8118 20.5671 26.6243 19.6971 26.271 18.889C25.9178 18.081 25.4059 17.3513 24.7655 16.7426ZM12.564 23.0506C12.564 23.2143 12.4986 23.3713 12.3822 23.487C12.2659 23.6028 12.108 23.6679 11.9435 23.6679H10.4987C10.4174 23.6679 10.3369 23.6519 10.2619 23.6208C10.1869 23.5897 10.1188 23.5442 10.0615 23.4868C10.0043 23.4294 9.959 23.3613 9.92831 23.2865C9.89762 23.2116 9.88213 23.1314 9.88272 23.0506V20.239C9.88213 20.1582 9.89762 20.078 9.92831 20.0031C9.959 19.9283 10.0043 19.8602 10.0615 19.8028C10.1188 19.7454 10.1869 19.6999 10.2619 19.6688C10.3369 19.6377 10.4174 19.6217 10.4987 19.6217H11.9435C12.108 19.6217 12.2659 19.6868 12.3822 19.8025C12.4986 19.9183 12.564 20.0753 12.564 20.239V23.0506ZM16.7127 23.0506C16.7133 23.1314 16.6978 23.2116 16.6671 23.2865C16.6364 23.3613 16.5911 23.4294 16.5339 23.4868C16.4766 23.5442 16.4085 23.5897 16.3335 23.6208C16.2584 23.6519 16.178 23.6679 16.0967 23.6679H14.6474C14.5661 23.6679 14.4856 23.6519 14.4106 23.6208C14.3356 23.5897 14.2675 23.5442 14.2102 23.4868C14.153 23.4294 14.1077 23.3613 14.077 23.2865C14.0463 23.2116 14.0308 23.1314 14.0314 23.0506V14.9989C14.0314 14.8364 14.0963 14.6805 14.2118 14.5656C14.3273 14.4507 14.484 14.3861 14.6474 14.3861H16.0967C16.2601 14.3861 16.4167 14.4507 16.5322 14.5656C16.6478 14.6805 16.7127 14.8364 16.7127 14.9989V23.0506ZM20.8613 23.0506C20.8619 23.1314 20.8465 23.2116 20.8158 23.2865C20.7851 23.3613 20.7398 23.4294 20.6825 23.4868C20.6253 23.5442 20.5572 23.5897 20.4822 23.6208C20.4071 23.6519 20.3267 23.6679 20.2454 23.6679H18.8006C18.636 23.6679 18.4782 23.6028 18.3618 23.487C18.2455 23.3713 18.1801 23.2143 18.1801 23.0506V17.2788C18.1801 17.1151 18.2455 16.9581 18.3618 16.8423C18.4782 16.7265 18.636 16.6615 18.8006 16.6615H20.2454C20.3267 16.6615 20.4071 16.6775 20.4822 16.7086C20.5572 16.7396 20.6253 16.7852 20.6825 16.8426C20.7398 16.9 20.7851 16.968 20.8158 17.0429C20.8465 17.1178 20.8619 17.1979 20.8613 17.2788V23.0506Z" fill="#B3B3B3"/>
</svg>
